<svg width="36" height="36" viewBox="0 0 36 36" fill="none" xmlns="http://www.w3.org/2000/svg">
<path d="M36 18C36 27.9411 27.9411 36 18 36C8.05888 36 0 27.9411 0 18C0 8.05888 8.05888 0 18 0C27.9411 0 36 8.05888 36 18Z" fill="#E56C46"/>
<path fill-rule="evenodd" clip-rule="evenodd" d="M18 34.2108C26.953 34.2108 34.2108 26.953 34.2108 18C34.2108 9.047 26.953 1.78917 18 1.78917C9.047 1.78917 1.78917 9.047 1.78917 18C1.78917 26.953 9.047 34.2108 18 34.2108ZM18 36C27.9411 36 36 27.9411 36 18C36 8.05888 27.9411 0 18 0C8.05888 0 0 8.05888 0 18C0 27.9411 8.05888 36 18 36Z" fill="black"/>
<path fill-rule="evenodd" clip-rule="evenodd" d="M7.74004 17.1055C8.23411 17.1055 8.63463 17.506 8.63463 18.0001C8.63463 23.1724 12.8277 27.3655 18 27.3655C23.1724 27.3655 27.3655 23.1724 27.3655 18.0001C27.3655 17.506 27.766 17.1055 28.26 17.1055C28.7541 17.1055 29.1546 17.506 29.1546 18.0001C29.1546 24.1606 24.1605 29.1546 18 29.1546C11.8395 29.1546 6.84546 24.1606 6.84546 18.0001C6.84546 17.506 7.24598 17.1055 7.74004 17.1055Z" fill="black"/>
<path d="M14.9401 13.8601C14.9401 14.8542 14.1342 15.6601 13.1401 15.6601C12.146 15.6601 11.3401 14.8542 11.3401 13.8601C11.3401 12.8659 12.146 12.0601 13.1401 12.0601C14.1342 12.0601 14.9401 12.8659 14.9401 13.8601Z" fill="black"/>
<path d="M24.4799 13.8601C24.4799 14.8542 23.674 15.6601 22.6799 15.6601C21.6858 15.6601 20.8799 14.8542 20.8799 13.8601C20.8799 12.8659 21.6858 12.0601 22.6799 12.0601C23.674 12.0601 24.4799 12.8659 24.4799 13.8601Z" fill="black"/>
</svg>
