<svg width="16" height="16" viewBox="0 0 16 16" fill="none" xmlns="http://www.w3.org/2000/svg">
<path fill-rule="evenodd" clip-rule="evenodd" d="M7.5735 2.64376C7.99533 2.22194 8.67923 2.22194 9.10106 2.64376L13.6837 7.22642C13.9882 7.53091 14.0729 7.97195 13.9378 8.35241C13.8879 8.51655 13.798 8.67116 13.6682 8.80095L9.08559 13.3836C8.66376 13.8054 7.97985 13.8054 7.55803 13.3836C7.13621 12.9618 7.13621 12.2779 7.55803 11.8561L10.1274 9.28666L3.14449 9.28666C2.46272 9.28666 1.91003 8.73397 1.91003 8.05221C1.91003 7.37044 2.46272 6.81776 3.14449 6.81776L10.2199 6.81776L7.5735 4.17131C7.15168 3.74949 7.15168 3.06558 7.5735 2.64376Z" fill="white"/>
</svg>
