<svg width="77" height="77" viewBox="0 0 77 77" fill="none" xmlns="http://www.w3.org/2000/svg">
<path d="M60.6183 34.8093C60.1299 34.3209 59.5529 33.9537 58.924 33.7207C60.1834 31.8846 59.9994 29.3491 58.3693 27.7189C57.8575 27.2071 57.2561 26.8381 56.6153 26.6111C57.0562 25.8832 57.2922 25.0466 57.2922 24.1737C57.2922 22.9136 56.8015 21.729 55.9104 20.8382C55.0195 19.9472 53.835 19.4565 52.5749 19.4565C51.702 19.4565 50.8654 19.6925 50.1375 20.1334C49.9105 19.4926 49.5416 18.8912 49.0298 18.3794C47.1905 16.5403 44.1978 16.5402 42.3587 18.3794L34.2069 26.5311C33.9729 25.9343 33.6172 25.3863 33.1503 24.9194C32.2593 24.0284 31.0747 23.5377 29.8148 23.5377C28.5548 23.5377 27.3702 24.0284 26.4793 24.9194L19.6199 31.7787C17.2855 34.113 16 37.2166 16 40.5178C16 43.819 17.2855 46.9226 19.6199 49.2569L27.4917 57.1287C29.8259 59.4631 32.9295 60.7487 36.2307 60.7487C39.5319 60.7487 42.6356 59.4632 44.9698 57.1287L60.6182 41.4804C61.5092 40.5894 62 39.4048 62 38.1448C62.0001 36.8848 61.5093 35.7002 60.6183 34.8093ZM58.617 39.4791L42.9686 55.1274C41.1689 56.9272 38.776 57.9184 36.2308 57.9184C33.6856 57.9184 31.2928 56.9272 29.4931 55.1274L21.6213 47.2556C17.906 43.5404 17.906 37.4952 21.6213 33.78L28.4807 26.9207C28.837 26.5643 29.3108 26.368 29.8149 26.368C30.319 26.368 30.7927 26.5643 31.1491 26.9207C31.5054 27.277 31.7017 27.7508 31.7017 28.2549C31.7017 28.7589 31.5054 29.2326 31.1491 29.5891L25.8123 34.926L27.8136 36.9273L44.36 20.3807C45.0957 19.645 46.2928 19.645 47.0285 20.3807C47.7642 21.1164 47.7642 22.3134 47.0285 23.0492L36.4858 33.5918L38.4871 35.5931L51.2408 22.8395C51.5971 22.4831 52.071 22.2868 52.575 22.2868C53.0791 22.2868 53.5529 22.4831 53.9093 22.8395C54.2656 23.1958 54.462 23.6697 54.462 24.1737C54.462 24.6776 54.2656 25.1514 53.9093 25.5079L51.6992 27.718C51.6983 27.7189 41.1556 38.2616 41.1556 38.2616L43.1569 40.2629L53.6996 29.7202C54.4353 28.9845 55.6324 28.9845 56.3681 29.7202C57.1038 30.4559 57.1038 31.653 56.3681 32.3887L53.9482 34.8086C53.9474 34.8094 45.8254 42.9313 45.8254 42.9313L47.8267 44.9326L55.9491 36.8102C56.3054 36.4541 56.7791 36.2579 57.2829 36.2579C57.787 36.2579 58.2608 36.4542 58.6172 36.8106C58.9736 37.1669 59.1699 37.6408 59.1699 38.1448C59.1698 38.6488 58.9734 39.1226 58.617 39.4791Z" fill="#131325"/>
</svg>
