<svg width="1103" height="105" viewBox="0 0 1103 105" fill="none" xmlns="http://www.w3.org/2000/svg">
<mask id="path-1-inside-1_300_2960" fill="white">
<path d="M15.9911 105V67.2499H48.0031L55.2511 74.3469V105H70.8041V71.0249L60.3851 60.4549L70.3511 50.4889V10.7759L59.7811 0.356934H0.287109V105H15.9911ZM54.7981 47.1669L47.8521 53.9619H15.9911V13.6449H54.7981V47.1669Z"/>
<path d="M158.226 105L168.947 94.4299V10.7759L158.226 0.356934H103.866L93.296 10.7759V94.4299L103.866 105H158.226ZM109 14.5509H153.243V90.6549H109V14.5509Z"/>
<path d="M209.305 105V50.1869C209.305 45.5059 209.003 38.5599 208.701 33.7279L238.75 73.1389V87.4839H253.85V73.1389L283.899 33.7279C283.446 38.5599 283.144 45.5059 283.144 50.1869V105H298.546V0.356934H283.144V12.7389L246.3 60.0019L209.305 12.7389V0.356934H193.903V105H209.305Z"/>
<path d="M332.69 105V86.4269L336.465 76.1589H379.802L383.577 86.4269V105H399.281V84.6149L368.477 0.356934H347.79L316.986 84.7659V105H332.69ZM358.058 14.2489L376.027 62.8709H340.24L358.058 14.2489Z"/>
<path d="M432.853 105V50.3379C432.853 45.5059 432.551 38.7109 432.249 33.8789L483.438 91.5609V105H498.84V0.356934H483.438V54.8679C483.438 59.5489 483.891 66.3439 484.042 71.1759L432.853 13.4939V0.356934H417.602V105H432.853Z"/>
<path d="M546.389 14.5509H575.683V105H591.387V14.5509H620.681V0.356934H546.389V14.5509Z"/>
<path d="M701.5 105V90.6549H652.727V58.7939H692.44V46.1099H652.727V14.5509H700.745V0.356934H637.023V105H701.5Z"/>
<path d="M777.859 105L788.429 94.4299V56.5289L777.859 45.9589H733.767V13.6449H772.574V31.7649H787.976V10.7759L777.406 0.356934H728.935L718.516 10.7759V48.8279L728.935 59.2469H773.178V91.7119H733.314V75.5549H717.912V94.4299L728.482 105H777.859Z"/>
<path d="M870.644 105V90.6549H827.911V0.356934H812.207V105H870.644Z"/>
<path d="M886.97 105H902.674V0.356934H886.97V105Z"/>
<path d="M987.879 0.356934V90.6549H944.24V0.356934H928.536V94.4299L938.955 105H993.013L1003.58 94.4299V0.356934H987.879Z"/>
<path d="M1045.12 105V59.0959H1060.07L1086.34 87.1819V105H1102.05V82.6519L1072.6 51.6969L1101.59 21.6479V0.356934H1085.89V16.9669L1059.16 45.2039H1045.12V0.356934H1029.42V105H1045.12Z"/>
</mask>
<path d="M15.9911 105V67.2499H48.0031L55.2511 74.3469V105H70.8041V71.0249L60.3851 60.4549L70.3511 50.4889V10.7759L59.7811 0.356934H0.287109V105H15.9911ZM54.7981 47.1669L47.8521 53.9619H15.9911V13.6449H54.7981V47.1669Z" fill="#9CA7C2"/>
<path d="M158.226 105L168.947 94.4299V10.7759L158.226 0.356934H103.866L93.296 10.7759V94.4299L103.866 105H158.226ZM109 14.5509H153.243V90.6549H109V14.5509Z" fill="#9CA7C2"/>
<path d="M209.305 105V50.1869C209.305 45.5059 209.003 38.5599 208.701 33.7279L238.75 73.1389V87.4839H253.85V73.1389L283.899 33.7279C283.446 38.5599 283.144 45.5059 283.144 50.1869V105H298.546V0.356934H283.144V12.7389L246.3 60.0019L209.305 12.7389V0.356934H193.903V105H209.305Z" fill="#9CA7C2"/>
<path d="M332.69 105V86.4269L336.465 76.1589H379.802L383.577 86.4269V105H399.281V84.6149L368.477 0.356934H347.79L316.986 84.7659V105H332.69ZM358.058 14.2489L376.027 62.8709H340.24L358.058 14.2489Z" fill="#9CA7C2"/>
<path d="M432.853 105V50.3379C432.853 45.5059 432.551 38.7109 432.249 33.8789L483.438 91.5609V105H498.84V0.356934H483.438V54.8679C483.438 59.5489 483.891 66.3439 484.042 71.1759L432.853 13.4939V0.356934H417.602V105H432.853Z" fill="#9CA7C2"/>
<path d="M546.389 14.5509H575.683V105H591.387V14.5509H620.681V0.356934H546.389V14.5509Z" fill="#9CA7C2"/>
<path d="M701.5 105V90.6549H652.727V58.7939H692.44V46.1099H652.727V14.5509H700.745V0.356934H637.023V105H701.5Z" fill="#9CA7C2"/>
<path d="M777.859 105L788.429 94.4299V56.5289L777.859 45.9589H733.767V13.6449H772.574V31.7649H787.976V10.7759L777.406 0.356934H728.935L718.516 10.7759V48.8279L728.935 59.2469H773.178V91.7119H733.314V75.5549H717.912V94.4299L728.482 105H777.859Z" fill="#9CA7C2"/>
<path d="M870.644 105V90.6549H827.911V0.356934H812.207V105H870.644Z" fill="#9CA7C2"/>
<path d="M886.97 105H902.674V0.356934H886.97V105Z" fill="#9CA7C2"/>
<path d="M987.879 0.356934V90.6549H944.24V0.356934H928.536V94.4299L938.955 105H993.013L1003.58 94.4299V0.356934H987.879Z" fill="#9CA7C2"/>
<path d="M1045.12 105V59.0959H1060.07L1086.34 87.1819V105H1102.05V82.6519L1072.6 51.6969L1101.59 21.6479V0.356934H1085.89V16.9669L1059.16 45.2039H1045.12V0.356934H1029.42V105H1045.12Z" fill="#9CA7C2"/>
<path d="M15.9911 105V67.2499H48.0031L55.2511 74.3469V105H70.8041V71.0249L60.3851 60.4549L70.3511 50.4889V10.7759L59.7811 0.356934H0.287109V105H15.9911ZM54.7981 47.1669L47.8521 53.9619H15.9911V13.6449H54.7981V47.1669Z" stroke="url(#paint0_linear_300_2960)" stroke-width="2" mask="url(#path-1-inside-1_300_2960)"/>
<path d="M158.226 105L168.947 94.4299V10.7759L158.226 0.356934H103.866L93.296 10.7759V94.4299L103.866 105H158.226ZM109 14.5509H153.243V90.6549H109V14.5509Z" stroke="url(#paint1_linear_300_2960)" stroke-width="2" mask="url(#path-1-inside-1_300_2960)"/>
<path d="M209.305 105V50.1869C209.305 45.5059 209.003 38.5599 208.701 33.7279L238.75 73.1389V87.4839H253.85V73.1389L283.899 33.7279C283.446 38.5599 283.144 45.5059 283.144 50.1869V105H298.546V0.356934H283.144V12.7389L246.3 60.0019L209.305 12.7389V0.356934H193.903V105H209.305Z" stroke="url(#paint2_linear_300_2960)" stroke-width="2" mask="url(#path-1-inside-1_300_2960)"/>
<path d="M332.69 105V86.4269L336.465 76.1589H379.802L383.577 86.4269V105H399.281V84.6149L368.477 0.356934H347.79L316.986 84.7659V105H332.69ZM358.058 14.2489L376.027 62.8709H340.24L358.058 14.2489Z" stroke="url(#paint3_linear_300_2960)" stroke-width="2" mask="url(#path-1-inside-1_300_2960)"/>
<path d="M432.853 105V50.3379C432.853 45.5059 432.551 38.7109 432.249 33.8789L483.438 91.5609V105H498.84V0.356934H483.438V54.8679C483.438 59.5489 483.891 66.3439 484.042 71.1759L432.853 13.4939V0.356934H417.602V105H432.853Z" stroke="url(#paint4_linear_300_2960)" stroke-width="2" mask="url(#path-1-inside-1_300_2960)"/>
<path d="M546.389 14.5509H575.683V105H591.387V14.5509H620.681V0.356934H546.389V14.5509Z" stroke="url(#paint5_linear_300_2960)" stroke-width="2" mask="url(#path-1-inside-1_300_2960)"/>
<path d="M701.5 105V90.6549H652.727V58.7939H692.44V46.1099H652.727V14.5509H700.745V0.356934H637.023V105H701.5Z" stroke="url(#paint6_linear_300_2960)" stroke-width="2" mask="url(#path-1-inside-1_300_2960)"/>
<path d="M777.859 105L788.429 94.4299V56.5289L777.859 45.9589H733.767V13.6449H772.574V31.7649H787.976V10.7759L777.406 0.356934H728.935L718.516 10.7759V48.8279L728.935 59.2469H773.178V91.7119H733.314V75.5549H717.912V94.4299L728.482 105H777.859Z" stroke="url(#paint7_linear_300_2960)" stroke-width="2" mask="url(#path-1-inside-1_300_2960)"/>
<path d="M870.644 105V90.6549H827.911V0.356934H812.207V105H870.644Z" stroke="url(#paint8_linear_300_2960)" stroke-width="2" mask="url(#path-1-inside-1_300_2960)"/>
<path d="M886.97 105H902.674V0.356934H886.97V105Z" stroke="url(#paint9_linear_300_2960)" stroke-width="2" mask="url(#path-1-inside-1_300_2960)"/>
<path d="M987.879 0.356934V90.6549H944.24V0.356934H928.536V94.4299L938.955 105H993.013L1003.58 94.4299V0.356934H987.879Z" stroke="url(#paint10_linear_300_2960)" stroke-width="2" mask="url(#path-1-inside-1_300_2960)"/>
<path d="M1045.12 105V59.0959H1060.07L1086.34 87.1819V105H1102.05V82.6519L1072.6 51.6969L1101.59 21.6479V0.356934H1085.89V16.9669L1059.16 45.2039H1045.12V0.356934H1029.42V105H1045.12Z" stroke="url(#paint11_linear_300_2960)" stroke-width="2" mask="url(#path-1-inside-1_300_2960)"/>
<defs>
<linearGradient id="paint0_linear_300_2960" x1="550.5" y1="-51" x2="551" y2="111.5" gradientUnits="userSpaceOnUse">
<stop stop-color="white"/>
<stop offset="1" stop-color="white" stop-opacity="0"/>
</linearGradient>
<linearGradient id="paint1_linear_300_2960" x1="550.5" y1="-51" x2="551" y2="111.5" gradientUnits="userSpaceOnUse">
<stop stop-color="white"/>
<stop offset="1" stop-color="white" stop-opacity="0"/>
</linearGradient>
<linearGradient id="paint2_linear_300_2960" x1="550.5" y1="-51" x2="551" y2="111.5" gradientUnits="userSpaceOnUse">
<stop stop-color="white"/>
<stop offset="1" stop-color="white" stop-opacity="0"/>
</linearGradient>
<linearGradient id="paint3_linear_300_2960" x1="550.5" y1="-51" x2="551" y2="111.5" gradientUnits="userSpaceOnUse">
<stop stop-color="white"/>
<stop offset="1" stop-color="white" stop-opacity="0"/>
</linearGradient>
<linearGradient id="paint4_linear_300_2960" x1="550.5" y1="-51" x2="551" y2="111.5" gradientUnits="userSpaceOnUse">
<stop stop-color="white"/>
<stop offset="1" stop-color="white" stop-opacity="0"/>
</linearGradient>
<linearGradient id="paint5_linear_300_2960" x1="550.5" y1="-51" x2="551" y2="111.5" gradientUnits="userSpaceOnUse">
<stop stop-color="white"/>
<stop offset="1" stop-color="white" stop-opacity="0"/>
</linearGradient>
<linearGradient id="paint6_linear_300_2960" x1="550.5" y1="-51" x2="551" y2="111.5" gradientUnits="userSpaceOnUse">
<stop stop-color="white"/>
<stop offset="1" stop-color="white" stop-opacity="0"/>
</linearGradient>
<linearGradient id="paint7_linear_300_2960" x1="550.5" y1="-51" x2="551" y2="111.5" gradientUnits="userSpaceOnUse">
<stop stop-color="white"/>
<stop offset="1" stop-color="white" stop-opacity="0"/>
</linearGradient>
<linearGradient id="paint8_linear_300_2960" x1="550.5" y1="-51" x2="551" y2="111.5" gradientUnits="userSpaceOnUse">
<stop stop-color="white"/>
<stop offset="1" stop-color="white" stop-opacity="0"/>
</linearGradient>
<linearGradient id="paint9_linear_300_2960" x1="550.5" y1="-51" x2="551" y2="111.5" gradientUnits="userSpaceOnUse">
<stop stop-color="white"/>
<stop offset="1" stop-color="white" stop-opacity="0"/>
</linearGradient>
<linearGradient id="paint10_linear_300_2960" x1="550.5" y1="-51" x2="551" y2="111.5" gradientUnits="userSpaceOnUse">
<stop stop-color="white"/>
<stop offset="1" stop-color="white" stop-opacity="0"/>
</linearGradient>
<linearGradient id="paint11_linear_300_2960" x1="550.5" y1="-51" x2="551" y2="111.5" gradientUnits="userSpaceOnUse">
<stop stop-color="white"/>
<stop offset="1" stop-color="white" stop-opacity="0"/>
</linearGradient>
</defs>
</svg>
