<svg width="22" height="22" viewBox="0 0 22 22" fill="none" xmlns="http://www.w3.org/2000/svg">
<path d="M11.7226 17.9762C16.3553 17.6695 20 14.4394 20 10.5C20 6.35786 15.9706 3 11 3C6.02944 3 2 6.35786 2 10.5C2 12.7292 3.16708 14.7313 5.01984 16.105C5.24762 17.3857 4.96164 18.659 4.56504 19.656C4.32642 20.2558 4.5 21 5.34797 20.4202L5.38029 20.4007C7.3807 19.197 9.02162 18.2095 11.5 18C11.5827 17.993 11.6567 17.9851 11.7226 17.9762Z" fill="#98A2BD" stroke="#191930"/>
<circle cx="8" cy="10.5" r="1" fill="#191930"/>
<circle cx="11" cy="10.5" r="1" fill="#191930"/>
<circle cx="14" cy="10.5" r="1" fill="#191930"/>
</svg>
