<svg width="22" height="22" viewBox="0 0 22 22" fill="none" xmlns="http://www.w3.org/2000/svg">
<path d="M19.2778 7.22222V16.4444C19.2778 17.2729 18.6062 17.9444 17.7778 17.9444H4C3.17157 17.9444 2.5 17.2729 2.5 16.4444V5C2.5 4.17157 3.17157 3.5 4 3.5H7.14134C7.27395 3.5 7.40113 3.55268 7.4949 3.64645L9.13133 5.28288C9.41264 5.56419 9.79417 5.72222 10.192 5.72222H17.7778C18.6062 5.72222 19.2778 6.3938 19.2778 7.22222Z" fill="#98A2BD" stroke="#191930"/>
<path opacity="0.15" d="M2.92578 10.1132C3.09459 8.59387 4.37878 7.44446 5.90743 7.44446H19.1112V8.94446H19.3226C19.9001 8.94446 20.3576 9.4323 20.3205 10.0087L19.9585 15.637C19.8569 17.2159 18.5467 18.4445 16.9646 18.4445H4.23461C3.04259 18.4445 2.11521 17.4083 2.24684 16.2236L2.92578 10.1132Z" fill="#191930"/>
<path d="M6.6285 8.94446H19.5065C20.4662 8.94446 21.179 9.83308 20.9708 10.7699L19.8115 15.9868C19.5573 17.1306 18.5428 17.9445 17.371 17.9445H4.493C3.53338 17.9445 2.82055 17.0558 3.02872 16.1191L4.18804 10.9021C4.44222 9.75829 5.45676 8.94446 6.6285 8.94446Z" fill="#B0BAD4" stroke="#191930"/>
</svg>
