<svg width="22" height="22" viewBox="0 0 22 22" fill="none" xmlns="http://www.w3.org/2000/svg">
<path d="M19.3018 3.95113C19.0402 4.28274 18.7273 4.56612 18.3771 4.78742C18.1791 4.91255 18.0945 5.15836 18.1735 5.37885C18.2526 5.59933 18.4741 5.73539 18.7065 5.7062C18.9974 5.66967 19.2837 5.61821 19.5647 5.55255C19.2795 5.8484 18.9726 6.1206 18.6472 6.36546C18.5183 6.46253 18.4441 6.61589 18.4481 6.77727L18.4617 7.33156C18.4588 12.8629 14.4769 19.1429 7.28883 19.1429C5.73981 19.1429 4.26565 18.8072 2.92427 18.2014C4.60155 18.0127 6.13684 17.3277 7.39249 16.2894C7.55364 16.1562 7.61485 15.9367 7.54593 15.7393C7.477 15.5419 7.2925 15.4082 7.08342 15.4042C5.78475 15.3794 4.63776 14.6187 4.02237 13.4777C4.44283 13.4769 4.84849 13.4159 5.23205 13.307C5.45312 13.2442 5.60293 13.0388 5.59517 12.8091C5.58742 12.5794 5.42409 12.3846 5.19928 12.3369C3.79251 12.0383 2.66046 10.8562 2.37468 9.33552C2.77672 9.47282 3.20331 9.5542 3.64563 9.56979C3.86667 9.57758 4.06657 9.43922 4.13712 9.22959C4.20767 9.01996 4.13211 8.78889 3.95134 8.66145C2.98497 7.98015 2.33856 6.80749 2.33856 5.46725C2.33856 5.03602 2.40499 4.62273 2.52744 4.23807C4.61468 6.60254 7.54472 8.14025 10.8229 8.314C10.9789 8.32227 11.1298 8.25715 11.2308 8.13797C11.3318 8.0188 11.3713 7.85927 11.3376 7.70673C11.2756 7.42631 11.2431 7.13152 11.2431 6.82824C11.2431 4.6892 12.8813 3 14.8461 3C15.8741 3 16.8062 3.456 17.4668 4.19965C17.5858 4.33361 17.7674 4.39365 17.9428 4.35703C18.4105 4.25937 18.8644 4.12296 19.3018 3.95113Z" fill="#98A2BD" stroke="#191930" stroke-linejoin="round"/>
</svg>
