<svg width="27" height="26" viewBox="0 0 27 26" fill="none" xmlns="http://www.w3.org/2000/svg">
<path d="M25.6019 9.20123C25.2894 8.9597 24.9354 8.79337 24.5618 8.70697C25.1426 7.57396 24.8539 6.14913 23.8108 5.34298C23.4833 5.08988 23.1154 4.92431 22.7354 4.84214C22.9326 4.39719 23.0056 3.90554 22.9422 3.41039C22.8506 2.69567 22.4861 2.05944 21.916 1.61889C21.3459 1.17828 20.6383 0.98607 19.9236 1.07766C19.4284 1.14112 18.9711 1.33577 18.5902 1.6388C18.4149 1.29184 18.162 0.977515 17.8344 0.724414C16.6575 -0.185056 14.96 0.0324318 14.0505 1.20935L10.0193 6.42566C9.84318 6.10416 9.6016 5.81916 9.30283 5.58826C8.73269 5.14766 8.02512 4.95545 7.31046 5.04704C6.5958 5.13862 5.95951 5.50306 5.51895 6.07319L2.12683 10.4625C0.97246 11.9562 0.468905 13.8101 0.708872 15.6826C0.94884 17.555 1.90361 19.222 3.39736 20.3763L8.43455 24.2691C9.92825 25.4235 11.7821 25.9271 13.6546 25.6871C15.527 25.4472 17.194 24.4924 18.3483 22.9986L26.0868 12.9852C26.5274 12.415 26.7197 11.7074 26.6281 10.9927C26.5365 10.2781 26.1721 9.64184 25.6019 9.20123ZM24.8062 11.9955L17.0678 22.0089C16.1778 23.1606 14.8925 23.8967 13.4489 24.0817C12.0052 24.2668 10.5759 23.8785 9.42429 22.9885L4.38709 19.0957C2.0097 17.2584 1.57027 13.8296 3.40753 11.4522L6.79965 7.06287C6.97586 6.83485 7.23033 6.68905 7.51625 6.65241C7.80217 6.61576 8.08512 6.69269 8.3132 6.8689C8.54122 7.04511 8.68702 7.29958 8.72366 7.5855C8.7603 7.87142 8.68338 8.15437 8.50717 8.38245L5.86802 11.7975L7.14866 12.7872L15.3312 2.19903C15.695 1.72826 16.374 1.64124 16.8448 2.00505C17.3155 2.36887 17.4025 3.04783 17.0387 3.51866L11.8252 10.2649L13.1058 11.2546L19.4128 3.0935C19.589 2.86548 19.8435 2.71967 20.1294 2.68303C20.4153 2.64639 20.6983 2.72331 20.9264 2.89952C21.1544 3.07573 21.3002 3.33025 21.3368 3.61612C21.3735 3.90198 21.2966 4.18499 21.1203 4.41307L14.8134 12.5742L16.094 13.5639L21.3076 6.81759C21.6714 6.34682 22.3504 6.2598 22.8212 6.62362C23.292 6.98743 23.379 7.66645 23.0152 8.13722L17.8016 14.8834L19.0822 15.8731L23.0989 10.6756C23.2752 10.4477 23.5296 10.302 23.8153 10.2654C24.1013 10.2287 24.3843 10.3056 24.6123 10.4819C24.8404 10.6581 24.9862 10.9126 25.0228 11.1985C25.0594 11.4843 24.9824 11.7674 24.8062 11.9955Z" fill="white"/>
</svg>
