<svg width="23" height="28" viewBox="0 0 23 28" fill="none" xmlns="http://www.w3.org/2000/svg">
<path d="M16.8015 0C16.8667 0 16.9318 0 17.0007 0C17.1605 1.97462 16.4068 3.45005 15.4908 4.51851C14.592 5.57959 13.3613 6.6087 11.3707 6.45255C11.2379 4.50621 11.9928 3.14021 12.9076 2.07421C13.756 1.08075 15.3113 0.196724 16.8015 0Z" fill="#7BF080"/>
<path d="M22.8274 20.5528C22.8274 20.5724 22.8274 20.5897 22.8274 20.6081C22.2679 22.3024 21.47 23.7545 20.4962 25.102C19.6073 26.3254 18.5179 27.9717 16.5728 27.9717C14.892 27.9717 13.7756 26.891 12.053 26.8615C10.2309 26.832 9.22882 27.7652 7.56282 28C7.37224 28 7.18166 28 6.99477 28C5.7714 27.823 4.78409 26.8541 4.06481 25.9811C1.94388 23.4016 0.304922 20.0696 0 15.8056C0 15.3875 0 14.9707 0 14.5527C0.1291 11.501 1.61191 9.01982 3.58284 7.81734C4.62302 7.17799 6.05296 6.63331 7.64519 6.87675C8.32758 6.98249 9.02472 7.2161 9.6358 7.44725C10.2149 7.6698 10.9391 8.06448 11.6252 8.04357C12.0899 8.03005 12.5522 7.78783 13.0207 7.61693C14.3928 7.12143 15.7379 6.55339 17.5109 6.82019C19.6417 7.14233 21.154 8.08907 22.0884 9.54974C20.286 10.6969 18.8609 12.4256 19.1044 15.3777C19.3208 18.0593 20.8798 19.6282 22.8274 20.5528Z" fill="#7BF080"/>
</svg>
