<svg width="32" height="28" viewBox="0 0 32 28" fill="none" xmlns="http://www.w3.org/2000/svg">
<path d="M15.7906 2.51899L16.6749 0.993366C17.2191 0.0410686 18.4338 -0.279603 19.3861 0.264567C20.3384 0.808737 20.659 2.0234 20.1149 2.9757L11.6122 17.6974H17.7633C19.7553 17.6974 20.8728 20.0393 20.008 21.6621H1.98233C0.884276 21.6621 0 20.7778 0 19.6798C0 18.5817 0.884276 17.6974 1.98233 17.6974H7.03534L13.5071 6.48365L11.4859 2.9757C10.9417 2.0234 11.2624 0.818454 12.2147 0.264567C13.167 -0.279603 14.3719 0.0410686 14.9258 0.993366L15.7906 2.51899ZM8.14312 23.7027L6.23852 27.0066C5.69435 27.9589 4.47968 28.2796 3.52739 27.7354C2.57509 27.1913 2.25442 25.9766 2.79859 25.0243L4.21732 22.5755C5.81096 22.08 7.11308 22.4589 8.14312 23.7027ZM24.5557 17.7072H29.7156C30.8136 17.7072 31.6979 18.5914 31.6979 19.6895C31.6979 20.7875 30.8136 21.6718 29.7156 21.6718H26.849L28.7827 25.0243C29.3269 25.9766 29.0062 27.1815 28.0539 27.7354C27.1016 28.2796 25.8967 27.9589 25.3428 27.0066C22.0875 21.3609 19.6387 17.1338 18.0159 14.3158C16.3543 11.4492 17.5398 8.57288 18.7156 7.60114C20.0177 9.83613 21.9611 13.208 24.5557 17.7072Z" fill="#7BF080"/>
</svg>
