<svg width="28" height="28" viewBox="0 0 28 28" fill="none" xmlns="http://www.w3.org/2000/svg">
<path d="M20.9232 1.1862C22.8952 0.2097 23.8812 -0.278535 24.5475 0.164761C25.2138 0.608072 25.119 1.68934 24.9296 3.85189L24.8806 4.41135C24.8267 5.02589 24.7998 5.33315 24.896 5.61166C24.992 5.89018 25.2003 6.10842 25.617 6.5449L25.9964 6.94228C27.4624 8.47827 28.1954 9.24627 27.9538 10.0332C27.7121 10.8201 26.6559 11.1048 24.5433 11.6741L23.9968 11.8214C23.3965 11.9832 23.0963 12.0641 22.8569 12.252C22.6177 12.4399 22.4662 12.7136 22.1633 13.2608L21.8875 13.7589C20.8215 15.6848 20.2887 16.6477 19.4731 16.6907C18.6575 16.7337 18.0993 15.8283 16.9831 14.0178L16.6945 13.5494C16.3772 13.0347 16.2186 12.7776 15.9746 12.6152C15.7306 12.4528 15.4286 12.4036 14.8248 12.3053L14.2751 12.2159C12.1504 11.8701 11.0879 11.6972 10.8254 10.9369C10.563 10.1765 11.2744 9.33234 12.697 7.64394L13.0651 7.20714C13.4694 6.72734 13.6715 6.48745 13.76 6.19918C13.8485 5.91093 13.8134 5.60694 13.7431 4.99896L13.6791 4.44545C13.4319 2.30595 13.3083 1.2362 13.9616 0.723274C14.615 0.210344 15.6127 0.593932 17.6081 1.3611L18.1244 1.55958C18.6914 1.77758 18.975 1.88658 19.2738 1.87082C19.5725 1.85506 19.8526 1.71632 20.413 1.43882L20.9232 1.1862Z" fill="#F3ED6F"/>
<path d="M9.86203 13.048C5.58651 15.7771 1.7795 20.7147 0.127121 25.2441C-0.408993 26.7137 0.826946 27.9999 2.40328 27.9999H3.84989C3.84999 27.5088 3.96502 26.8986 4.13509 26.2581C4.31014 25.5989 4.56227 24.8394 4.87653 24.0255C5.50493 22.3982 6.39862 20.51 7.47047 18.7107C8.53847 16.9177 9.80839 15.1707 11.2013 13.8584C11.2358 13.8259 11.2705 13.7937 11.3052 13.7615C11.2725 13.7516 11.2401 13.7415 11.2083 13.7313C10.8104 13.6032 10.313 13.3994 9.86203 13.048Z" fill="#F3ED6F"/>
<path d="M14.0277 14.3038C13.5816 14.5768 13.1182 14.9376 12.6412 15.387C11.4416 16.5172 10.2869 18.0858 9.27445 19.7855C8.26585 21.4786 7.4232 23.2598 6.83538 24.782C6.54154 25.543 6.3156 26.2284 6.16459 26.7971C6.00883 27.3838 5.94982 27.7842 5.94971 28H9.91584C9.91598 26.4265 10.461 23.5122 11.4472 20.5917C12.171 18.4488 13.1731 16.1773 14.4645 14.3749L14.0277 14.3038Z" fill="#F3ED6F"/>
<path d="M15.817 16.1183C14.8711 17.5794 14.0657 19.4016 13.437 21.2637C12.4879 24.0738 12.0161 26.7451 12.0159 28H13.8201C15.3965 28 16.6655 26.7311 16.7705 25.1718C16.9509 22.4922 17.3645 20.0769 17.837 18.3593C17.3693 18.0847 17.0078 17.7238 16.742 17.4116C16.4354 17.0516 16.127 16.6021 15.817 16.1183Z" fill="#F3ED6F"/>
</svg>
