<svg width="30" height="30" viewBox="0 0 30 30" fill="none" xmlns="http://www.w3.org/2000/svg">
<circle cx="15" cy="15" r="15" fill="url(#paint0_linear_3466_11498)"/>
<circle cx="15" cy="15" r="15" fill="url(#paint1_radial_3466_11498)"/>
<path d="M15 0C15.5569 0.217928 15.8793 7.18965 15.8793 13.4483C15.8793 19.7069 15.7241 29.4828 15 30C6.71573 30 0 23.2843 0 15C0 6.71573 6.71573 0 15 0Z" fill="url(#paint2_radial_3466_11498)"/>
<rect x="10.5518" y="9.3103" width="3.10345" height="6.2069" rx="1.55172" fill="#292929"/>
<rect x="18.1035" y="9.3103" width="3.10345" height="6.2069" rx="1.55172" fill="#292929"/>
<path fill-rule="evenodd" clip-rule="evenodd" d="M15.0024 0C15.0491 0 15.1216 0.00108741 15.1517 0.00156283C15.1642 0.0161519 15.1757 0.0331019 15.1864 0.0515872C15.2191 0.108255 15.2496 0.189203 15.2786 0.290504C15.3369 0.493898 15.3925 0.791488 15.4452 1.17168C15.5507 1.93274 15.6455 3.03269 15.7251 4.39037C15.8843 7.10613 15.9827 10.8572 15.9827 15C15.9827 19.1428 15.8843 22.8939 15.7251 25.6096C15.6455 26.9673 15.5507 28.0673 15.4452 28.8283C15.3925 29.2085 15.3369 29.5061 15.2786 29.7095C15.2496 29.8108 15.2191 29.8917 15.1864 29.9484C15.1754 29.9675 15.1635 29.985 15.1505 29.9999C15.0968 29.9999 15.0531 29.9999 14.9978 29.9999C15.0194 29.9792 15.029 29.9677 15.0549 29.9382C15.0689 29.9223 15.072 29.9158 15.0852 29.8929C15.1116 29.8472 15.1411 29.7773 15.1693 29.6788C15.2256 29.4825 15.2902 29.193 15.3427 28.8141C15.4477 28.0571 15.5423 26.9604 15.6218 25.6036C15.7809 22.8904 15.8793 19.1415 15.8793 15C15.8793 10.8585 15.7809 7.1096 15.6218 4.39643C15.5423 3.03964 15.4477 1.94289 15.3427 1.18588C15.2902 0.807023 15.2354 0.515226 15.1792 0.318993C15.151 0.22048 15.1232 0.149055 15.0968 0.103303C15.0836 0.0804194 15.0758 0.0706952 15.0671 0.0577856C15.0464 0.0274784 15.0275 0.0153556 15.0024 0Z" fill="#0B4D1A" fill-opacity="0.5"/>
<path d="M8.54949 18.4296C8.44393 18.1642 8.14318 18.0345 7.87773 18.1401C7.61228 18.2456 7.48266 18.5464 7.58821 18.8118L8.54949 18.4296ZM23.7564 18.8118C23.8619 18.5464 23.7323 18.2456 23.4669 18.1401C23.2014 18.0345 22.9007 18.1642 22.7951 18.4296L23.7564 18.8118ZM15.6723 22.2414C12.1944 22.2414 9.39526 20.5566 8.54949 18.4296L7.58821 18.8118C8.64288 21.4642 11.9326 23.2759 15.6723 23.2759V22.2414ZM22.7951 18.4296C21.9493 20.5566 19.1502 22.2414 15.6723 22.2414V23.2759C19.412 23.2759 22.7017 21.4642 23.7564 18.8118L22.7951 18.4296Z" fill="#292929"/>
<defs>
<linearGradient id="paint0_linear_3466_11498" x1="15" y1="0" x2="15" y2="30" gradientUnits="userSpaceOnUse">
<stop offset="0.0832607" stop-color="#9AF672"/>
<stop offset="0.889199" stop-color="#0C931C"/>
</linearGradient>
<radialGradient id="paint1_radial_3466_11498" cx="0" cy="0" r="1" gradientUnits="userSpaceOnUse" gradientTransform="translate(15.75 9) rotate(92.0454) scale(21.0134)">
<stop offset="0.526352" stop-color="#30D053" stop-opacity="0"/>
<stop offset="1" stop-color="#1ADC45"/>
</radialGradient>
<radialGradient id="paint2_radial_3466_11498" cx="0" cy="0" r="1" gradientUnits="userSpaceOnUse" gradientTransform="translate(15.75 11.25) rotate(90) scale(18.75 18.75)">
<stop offset="0.37246" stop-color="#F9F9F9"/>
<stop offset="1" stop-color="#D1DBE5"/>
</radialGradient>
</defs>
</svg>
