<svg width="24" height="28" viewBox="0 0 24 28" fill="none" xmlns="http://www.w3.org/2000/svg">
<path d="M20.6038 3.16981H15.8491V1.21826C15.8491 0.546264 15.3028 0 14.6308 0H8.61449C7.94249 0 7.39623 0.546264 7.39623 1.21826V3.16981H2.64151C1.18498 3.16981 0 4.35479 0 5.81132V23.2453C0 24.7018 1.18498 25.8868 2.64151 25.8868H4.22642V26.7817C4.22642 27.4532 4.77268 28 5.44468 28H17.8011C18.4726 28 19.0194 27.4537 19.0194 26.7817V25.8868H20.6043C22.0608 25.8868 23.2458 24.7018 23.2458 23.2453V5.81132C23.2453 4.35479 22.0603 3.16981 20.6038 3.16981ZM13.2075 20.0755V19.5472C13.2075 19.255 13.4437 19.0189 13.7358 19.0189C14.028 19.0189 14.2642 19.255 14.2642 19.5472V20.0755H15.3208V19.5472C15.3208 19.255 15.5569 19.0189 15.8491 19.0189C16.1412 19.0189 16.3774 19.255 16.3774 19.5472V20.0755H16.9057C17.1978 20.0755 17.434 20.3116 17.434 20.6038C17.434 20.8959 17.1978 21.1321 16.9057 21.1321H16.3774V21.6604C16.3774 21.9525 16.1412 22.1887 15.8491 22.1887C15.5569 22.1887 15.3208 21.9525 15.3208 21.6604V21.1321H14.2642V21.6604C14.2642 21.9525 14.028 22.1887 13.7358 22.1887C13.4437 22.1887 13.2075 21.9525 13.2075 21.6604V21.1321H12.1509V21.6604C12.1509 21.9525 11.9148 22.1887 11.6226 22.1887C11.3305 22.1887 11.0943 21.9525 11.0943 21.6604V21.1321H10.0377V21.6604C10.0377 21.9525 9.80159 22.1887 9.50943 22.1887C9.21728 22.1887 8.98113 21.9525 8.98113 21.6604V21.1321H7.92453V21.6604C7.92453 21.9525 7.68838 22.1887 7.39623 22.1887C7.10408 22.1887 6.86792 21.9525 6.86792 21.6604V21.1321H6.33962C6.04747 21.1321 5.81132 20.8959 5.81132 20.6038C5.81132 20.3116 6.04747 20.0755 6.33962 20.0755H6.86792V19.5472C6.86792 19.255 7.10408 19.0189 7.39623 19.0189C7.68838 19.0189 7.92453 19.255 7.92453 19.5472V20.0755H8.98113V19.5472C8.98113 19.255 9.21728 19.0189 9.50943 19.0189C9.80159 19.0189 10.0377 19.255 10.0377 19.5472V20.0755H11.0943V19.5472C11.0943 19.255 11.3305 19.0189 11.6226 19.0189C11.9148 19.0189 12.1509 19.255 12.1509 19.5472V20.0755H13.2075ZM6.86792 8.98113C8.90664 8.98113 10.566 10.6405 10.566 12.6792C10.566 14.718 8.90664 16.3774 6.86792 16.3774C4.82921 16.3774 3.16981 14.718 3.16981 12.6792C3.16981 10.6405 4.82921 8.98113 6.86792 8.98113ZM16.3774 16.3774C14.3386 16.3774 12.6792 14.718 12.6792 12.6792C12.6792 10.6405 14.3386 8.98113 16.3774 8.98113C18.4161 8.98113 20.0755 10.6405 20.0755 12.6792C20.0755 14.718 18.4161 16.3774 16.3774 16.3774Z" fill="#A0F67F"/>
</svg>
