<svg xmlns="http://www.w3.org/2000/svg" width="173.07" height="21.72" viewBox="0 0 173.07 21.72"><path d="M20.7-21H17.16v.3c1.44.27,1.56.48,1.11,2.34L15.6-7.35,12.63-18.36a6.139,6.139,0,0,1-.18-.84,1.763,1.763,0,0,1,1.56-1.5V-21H.3v.3c.99.27,1.38.48,1.86,2.34L6.9.36H7.98l2.64-11.7L13.59.36h1.08L18.9-18.33c.42-1.89.81-2.1,1.8-2.37ZM5.94-18.36c-.48-1.86-.39-2.07,1.05-2.34.99.27,1.38.48,1.86,2.34l1.38,5.52L8.91-7.35ZM31.29-7.08C30.48-1.23,29.58-.6,27.87-.6H25.89V-10.8h1.26c1.74,0,1.89.3,2.22,3.36H30l-.57-7.02h-.6c.15,2.76-.06,3.06-1.59,3.06H25.89v-9h1.65c1.95,0,2.58.63,3.39,6.48h.6L30.84-21H21.36v.3c.99.27,1.2.51,1.2,2.43V-2.73c0,1.92-.21,2.16-1.2,2.43V0h9.81l.72-7.08Zm9.51-4.38a4.844,4.844,0,0,0,3.45-4.98c0-3.48-2.01-4.92-5.1-4.92-1.35,0-2.67.3-4.44.36H33.12v.3c.99.27,1.2.51,1.2,2.43V-2.73c0,1.92-.21,2.16-1.2,2.43V0h1.59c1.83.06,2.97.36,4.35.36,2.61,0,5.97-1.08,5.97-5.82C45.03-9.33,42.84-10.89,40.8-11.46Zm-3.15-9.15a5.178,5.178,0,0,1,1.14-.15c1.14,0,1.74.9,1.74,4.44,0,3.42-.57,4.56-1.86,4.56a4.414,4.414,0,0,1-1.02-.15ZM38.88-.24a3.784,3.784,0,0,1-1.23-.21V-11.31a5.793,5.793,0,0,0,1.26.15c1.65,0,2.16,2.04,2.16,5.85C41.07-1.71,40.35-.24,38.88-.24ZM52.17-20.4c2.13,0,2.85.63,3.87,6.48h.6L55.92-21H46.2v.3c.99.27,1.2.51,1.2,2.43V-2.73c0,1.92-.21,2.16-1.2,2.43V0h5.73V-.3c-.99-.27-1.2-.51-1.2-2.43v-7.68h1.2c1.74,0,1.95.3,2.28,3.36h.63l-.57-7.02h-.6c.15,2.76-.12,3.06-1.65,3.06H50.73V-20.4ZM67.71-7.08C66.69-1.23,65.97-.6,63.84-.6H62.4V-18.27c0-1.92.21-2.16,1.2-2.43V-21H57.87v.3c.99.27,1.2.51,1.2,2.43V-2.73c0,1.92-.21,2.16-1.2,2.43V0h9.72l.72-7.08ZM76.11.36c3.57,0,6.48-2.52,6.48-10.86s-2.94-10.86-6.48-10.86-6.45,2.55-6.45,10.86S72.57.36,76.11.36Zm0-.6c-1.92,0-2.49-2.7-2.49-10.26,0-7.53.57-10.26,2.49-10.26,1.95,0,2.52,2.7,2.52,10.26S78.06-.24,76.11-.24ZM102.54-21H99v.3c1.44.27,1.56.48,1.11,2.34L97.44-7.35,94.47-18.36a6.141,6.141,0,0,1-.18-.84,1.763,1.763,0,0,1,1.56-1.5V-21H82.14v.3c.99.27,1.38.48,1.86,2.34L88.74.36h1.08l2.64-11.7L95.43.36h1.08l4.23-18.69c.42-1.89.81-2.1,1.8-2.37ZM87.78-18.36c-.48-1.86-.39-2.07,1.05-2.34.99.27,1.38.48,1.86,2.34l1.38,5.52L90.75-7.35ZM108.15,0h6.06V-.3c-1.26-.27-1.53-.51-1.53-2.43V-6.96a5.214,5.214,0,0,0,1.92.36c2.28,0,5.55-1.83,5.55-7.74,0-5.88-3.21-7.02-5.97-7.02-1.47,0-2.55.3-4.44.36h-1.59v.3c.99.27,1.2.51,1.2,2.43V-2.73c0,1.92-.21,2.16-1.2,2.43Zm4.53-20.58a4.521,4.521,0,0,1,1.23-.18c1.44,0,2.28,1.08,2.28,6.72,0,6-.93,6.84-2.25,6.84a2.87,2.87,0,0,1-1.26-.36Zm14.73-.78h-.3c-.6.93-1.86.96-2.91.96v.3l.24,1.23-3.03,16.2c-.36,1.86-.69,2.1-1.68,2.37V0h3.54V-.3c-1.44-.27-1.59-.51-1.23-2.37l.57-3h4.26l.57,3c.33,1.86.18,2.1-1.26,2.37V0h6.39V-.3c-.96-.27-1.32-.51-1.68-2.37Zm-2.64,4.29,2.01,10.8h-4.05ZM146.16-3.06c-.15,2.01-.33,2.52-.72,2.52-.66,0-.63-1.23-.99-5.34-.33-4.02-1.32-5.31-3.3-5.76a4.9,4.9,0,0,0,3.72-4.92c0-3.69-2.82-4.8-5.13-4.8-1.47,0-2.52.33-4.68.36h-1.59v.3c.99.27,1.2.51,1.2,2.43V-2.73c0,1.92-.21,2.16-1.2,2.43V0h5.73V-.3c-.99-.27-1.2-.51-1.2-2.43v-8.79a9.139,9.139,0,0,0,1.5.12c1.29,0,1.23,1.47,1.62,5.73s.84,6.03,3.21,6.03c2.04,0,2.28-1.05,2.43-3.33ZM138-20.58a3.96,3.96,0,0,1,1.17-.18c1.23,0,1.98,1.2,1.98,4.23,0,2.64-.51,4.53-1.98,4.53a3.8,3.8,0,0,1-1.17-.15ZM158.37-21H147.15l-.72,7.08h.6c1.02-5.85,1.71-6.48,3.51-6.48h.54V-2.73c0,1.92-.21,2.16-1.2,2.43V0h5.73V-.3c-.96-.27-1.17-.51-1.17-2.43V-20.4h.51c1.8,0,2.46.63,3.51,6.48h.6Zm15,0h-3.54v.3c1.41.27,1.47.48.87,2.28l-2.37,7.29-2.67-7.32c-.66-1.8-.6-1.98.81-2.25V-21h-6.81v.3c.99.27,1.47.45,2.13,2.25l3.45,9.6v6.12c0,1.92-.21,2.16-1.17,2.43V0h5.73V-.3c-.99-.27-1.2-.51-1.2-2.43V-9.96l2.76-8.46c.6-1.8,1.05-2.01,2.01-2.28Z" transform="translate(-0.3 21.36)" fill="#f6f4f1"/></svg>