<?xml version="1.0" encoding="UTF-8"?>
<svg version="1.1" xmlns="http://www.w3.org/2000/svg" width="1024" height="642">
<path d="M0 0 C337.92 0 675.84 0 1024 0 C1024 211.86 1024 423.72 1024 642 C686.08 642 348.16 642 0 642 C0 430.14 0 218.28 0 0 Z " fill="#FEFEFE" transform="translate(0,0)"/>
<path d="M0 0 C38.61 0 77.22 0 117 0 C111.64106069 9.37814378 111.64106069 9.37814378 110 11 C107.36140442 11.51898193 107.36140442 11.51898193 104.15161133 11.54589844 C102.35008354 11.57547638 102.35008354 11.57547638 100.51216125 11.60565186 C98.5667469 11.60749481 98.5667469 11.60749481 96.58203125 11.609375 C95.24108377 11.62435538 93.90015476 11.64108224 92.55924988 11.65948486 C89.0329199 11.70318794 85.50683879 11.72316354 81.98028564 11.73822021 C78.38058741 11.75778104 74.78115838 11.79975202 71.18164062 11.83984375 C64.12119623 11.91517721 57.06077123 11.96544943 50 12 C50 13.65 50 15.3 50 17 C51.04865234 17.0093457 52.09730469 17.01869141 53.17773438 17.02832031 C57.09937728 17.06844378 61.02025398 17.13426226 64.94140625 17.20751953 C66.63271174 17.23560037 68.32414532 17.25687854 70.015625 17.27099609 C72.45899425 17.29260608 74.90084425 17.33934334 77.34375 17.390625 C78.46299866 17.39246796 78.46299866 17.39246796 79.6048584 17.39434814 C85.97230622 17.56869875 91.49487085 19.41658556 96 24.0625 C98.01463376 29.98048667 97.98636687 35.79053822 95.4375 41.5 C89.43147686 47.66002373 82.35956981 47.5244167 74.22265625 47.64453125 C73.09733994 47.66400314 71.97202362 47.68347504 70.81260681 47.70353699 C68.44003374 47.736156 66.06732593 47.76001082 63.69458008 47.77563477 C60.07578904 47.81236512 56.4630059 47.91838439 52.84570312 48.02539062 C50.53389331 48.04857311 48.22203721 48.06759175 45.91015625 48.08203125 C44.83596939 48.12423294 43.76178253 48.16643463 42.65504456 48.20991516 C37.88450164 48.16807305 35.11562773 48.00367673 31.48312378 44.73568726 C26 37.98903589 26 37.98903589 26 36 C54.215 35.505 54.215 35.505 83 35 C83.33 33.35 83.66 31.7 84 30 C81.29251959 28.6462598 79.17618068 28.87531774 76.14501953 28.87402344 C74.91679474 28.87021667 73.68856995 28.86640991 72.42312622 28.86248779 C71.76495029 28.86229393 71.10677437 28.86210007 70.42865372 28.86190033 C67.66298706 28.85848647 64.89755586 28.83712666 62.13197136 28.81666946 C56.98166694 28.77863598 51.8316132 28.74738554 46.68115234 28.74951172 C43.09937857 28.75029873 39.51846541 28.72694193 35.93691635 28.6876297 C34.57262923 28.6771658 33.20824282 28.6756487 31.84393692 28.68328094 C29.93385944 28.69290003 28.02370239 28.66895087 26.11376953 28.64355469 C25.02726105 28.63990906 23.94075256 28.63626343 22.82131958 28.63250732 C20 28 20 28 17.6178894 25.58477783 C16 23 16 23 16 21 C16.91523438 20.93941406 17.83046875 20.87882812 18.7734375 20.81640625 C20.55621094 20.69072266 20.55621094 20.69072266 22.375 20.5625 C24.15003906 20.44068359 24.15003906 20.44068359 25.9609375 20.31640625 C28.91518901 20.18915064 28.91518901 20.18915064 31 19 C30.505 16.525 30.505 16.525 30 14 C29.410979 14.03254883 28.82195801 14.06509766 28.21508789 14.09863281 C11.77698071 14.78778061 11.77698071 14.78778061 7.12207031 11.79101562 C3.95039752 8.67434293 1.84935432 5.03922468 0 1 C0 0.67 0 0.34 0 0 Z " fill="#384F94" transform="translate(318,228)"/>
<path d="M0 0 C4.4438108 2.25088677 7.07644747 5.75438163 8.734375 10.34765625 C9.83353217 15.08182137 9.80934766 19.37045569 9.109375 24.16015625 C8.59199473 27.62911902 8.59199473 27.62911902 10.171875 30.78515625 C10.6875 31.30078125 11.203125 31.81640625 11.734375 32.34765625 C11.734375 33.00765625 11.734375 33.66765625 11.734375 34.34765625 C7.35960026 34.4641735 2.98522673 34.53501625 -1.390625 34.59765625 C-2.628125 34.63117188 -3.865625 34.6646875 -5.140625 34.69921875 C-16.43044956 34.82061471 -16.43044956 34.82061471 -21.265625 30.34765625 C-21.843125 29.87328125 -22.420625 29.39890625 -23.015625 28.91015625 C-27.11840421 23.78168224 -26.86070398 17.57309787 -26.265625 11.34765625 C-24.49956983 6.49100453 -21.93920952 3.02165737 -17.53125 0.26171875 C-12.27483697 -1.85897203 -5.39853484 -1.55440572 0 0 Z " fill="#395195" transform="translate(665.265625,234.65234375)"/>
<path d="M0 0 C3.66864538 2.68437467 6.50666083 5.76332166 8.5625 9.875 C9.05578755 15.72975711 9.41994288 21.06484281 6.875 26.4375 C2.91329122 30.6133552 -0.23604368 33.59319793 -6.14453125 34.11328125 C-12.42456119 34.26337002 -16.6005672 34.34916284 -21.4375 29.875 C-26.46397617 24.1692703 -26.7849964 20.59271726 -26.71875 13.08203125 C-26.23623953 7.58007163 -23.8096814 5.08382647 -19.8125 1.5625 C-14.03972739 -2.53920685 -6.59541689 -2.15850007 0 0 Z " fill="#395194" transform="translate(533.4375,235.125)"/>
<path d="M0 0 C5.625 1.125 5.625 1.125 8.55078125 4.16015625 C9.16630859 4.78857422 9.78183594 5.41699219 10.41601562 6.06445312 C11.04185547 6.72380859 11.66769531 7.38316406 12.3125 8.0625 C12.95767578 8.72572266 13.60285156 9.38894531 14.26757812 10.07226562 C15.85447018 11.70617671 17.43126328 13.34868147 19 15 C19.09087891 13.50146484 19.09087891 13.50146484 19.18359375 11.97265625 C19.26738281 10.68230469 19.35117187 9.39195312 19.4375 8.0625 C19.51871094 6.77472656 19.59992187 5.48695313 19.68359375 4.16015625 C20 1 20 1 21 0 C22.8125 -0.1328125 22.8125 -0.1328125 25 -0.125 C25.721875 -0.12757813 26.44375 -0.13015625 27.1875 -0.1328125 C29 0 29 0 30 1 C30.08843793 3.44830426 30.11528752 5.86820599 30.09765625 8.31640625 C30.0962413 9.04746078 30.09482635 9.77851532 30.09336853 10.53172302 C30.08775408 12.87535632 30.07519922 15.21889539 30.0625 17.5625 C30.05748686 19.14778508 30.05292363 20.73307166 30.04882812 22.31835938 C30.03777997 26.2122761 30.02050572 30.10612205 30 34 C28.22509766 34.69677734 28.22509766 34.69677734 26 35 C24.20068359 33.75244141 24.20068359 33.75244141 22.3984375 31.8515625 C21.74359375 31.17609375 21.08875 30.500625 20.4140625 29.8046875 C19.40472656 28.72574219 19.40472656 28.72574219 18.375 27.625 C17.03059573 26.21948645 15.6843296 24.81575073 14.3359375 23.4140625 C13.74345215 22.7845166 13.1509668 22.1549707 12.54052734 21.50634766 C11.05472647 19.90004396 11.05472647 19.90004396 9 19 C9.01160156 20.07121094 9.02320313 21.14242187 9.03515625 22.24609375 C9.04453299 23.64322743 9.05363331 25.04036299 9.0625 26.4375 C9.07087891 27.14455078 9.07925781 27.85160156 9.08789062 28.58007812 C9.09653588 30.38693559 9.05220011 32.19387603 9 34 C8.505 34.495 8.505 34.495 8 35 C5.36 35 2.72 35 0 35 C0 23.45 0 11.9 0 0 Z " fill="#3B5295" transform="translate(581,234)"/>
<path d="M0 0 C0.85142578 -0.03738281 1.70285156 -0.07476562 2.58007812 -0.11328125 C6.93484071 -0.1739044 9.88033961 -0.05866879 13.3359375 2.7578125 C16.41353445 6.01016259 17.78199403 7.98681803 17.83984375 12.515625 C17.51294627 17.57834495 16.6854233 20.82482031 12.8125 24.375 C8.42016715 27.01039971 3.77222067 26.56949885 -1.1875 26.375 C-1.166875 27.674375 -1.14625 28.97375 -1.125 30.3125 C-1.10350546 31.66665633 -1.11601801 33.02256083 -1.1875 34.375 C-2.1875 35.375 -2.1875 35.375 -5.6875 35.5 C-9.1875 35.375 -9.1875 35.375 -10.1875 34.375 C-10.28832764 31.93839554 -10.32722603 29.53075299 -10.3203125 27.09375 C-10.32126923 26.36506714 -10.32222595 25.63638428 -10.32321167 24.88562012 C-10.32389335 23.3422029 -10.32203988 21.79878283 -10.31787109 20.25537109 C-10.31252262 17.885026 -10.31781642 15.51487041 -10.32421875 13.14453125 C-10.32355797 11.64843708 -10.3222768 10.15234303 -10.3203125 8.65625 C-10.32233673 7.94271362 -10.32436096 7.22917725 -10.32644653 6.49401855 C-10.28875759 -1.36599188 -6.89124801 0.11221869 0 0 Z " fill="#3A5195" transform="translate(558.1875,233.625)"/>
<path d="M0 0 C2.97 0 5.94 0 9 0 C9.33 3.96 9.66 7.92 10 12 C12.97 12 15.94 12 19 12 C19.33 8.04 19.66 4.08 20 0 C26.15234375 -0.09765625 26.15234375 -0.09765625 28 0 C29.70492881 1.70492881 29.1280442 3.84534261 29.13894653 6.11901855 C29.1369223 6.83255493 29.13489807 7.54609131 29.1328125 8.28125 C29.13424759 9.37427429 29.13424759 9.37427429 29.13571167 10.48937988 C29.13639335 12.0327971 29.13453988 13.57621717 29.13037109 15.11962891 C29.12502262 17.489974 29.13031642 19.86012959 29.13671875 22.23046875 C29.13605797 23.72656292 29.1347768 25.22265697 29.1328125 26.71875 C29.13483673 27.43228638 29.13686096 28.14582275 29.13894653 28.88098145 C29.11495191 33.88504809 29.11495191 33.88504809 28 35 C25.32941149 35.14115161 22.67567762 35.04247107 20 35 C19.505 28.565 19.505 28.565 19 22 C15.7 21.67 12.4 21.34 9 21 C9 25.62 9 30.24 9 35 C2.84765625 35.09765625 2.84765625 35.09765625 1 35 C0 34 0 34 -0.11352539 30.76538086 C-0.11336631 29.33185874 -0.10767407 27.89833088 -0.09765625 26.46484375 C-0.0962413 25.71159317 -0.09482635 24.95834259 -0.09336853 24.18226624 C-0.08775376 21.7673044 -0.07519883 19.35243399 -0.0625 16.9375 C-0.0574869 15.30403779 -0.05292366 13.67057414 -0.04882812 12.03710938 C-0.03777954 8.02470415 -0.02050506 4.01236759 0 0 Z " fill="#3A5195" transform="translate(472,234)"/>
<path d="M0 0 C2.54485606 1.82707615 3.53686212 2.77789499 4.4375 5.75 C4.4375 7.07 4.4375 8.39 4.4375 9.75 C1.0625 9.875 1.0625 9.875 -2.5625 9.75 C-3.2225 9.09 -3.8825 8.43 -4.5625 7.75 C-8.14593976 7.58322718 -8.14593976 7.58322718 -11.5625 7.75 C-11.5625 9.07 -11.5625 10.39 -11.5625 11.75 C-10.69238281 11.80607422 -10.69238281 11.80607422 -9.8046875 11.86328125 C-4.77825144 12.28629815 -0.91543191 12.98960415 3.4375 15.75 C5.92000285 19.47375427 5.84742301 22.44144756 5.4375 26.75 C4.56091377 29.69851733 3.75576818 30.51956927 1.2578125 32.328125 C-4.09716905 35.02786639 -11.00107611 34.83983463 -16.70703125 33.09375 C-18.3125 32.1875 -18.3125 32.1875 -20.5625 29.75 C-21.4375 26 -21.4375 26 -21.5625 22.75 C-15.5078125 22.5546875 -15.5078125 22.5546875 -13.5625 22.75 C-12.9025 23.41 -12.2425 24.07 -11.5625 24.75 C-8.90712628 25.31520003 -6.27105287 25.48788198 -3.5625 25.75 C-3.8925 24.43 -4.2225 23.11 -4.5625 21.75 C-5.77486328 21.51216797 -5.77486328 21.51216797 -7.01171875 21.26953125 C-11.77197767 20.23019848 -15.70698579 19.30937468 -19.8125 16.625 C-21.88853789 13.21436633 -22.41851302 10.93803292 -22.16015625 6.9765625 C-21.24204867 3.55616172 -19.65526363 1.84988802 -16.828125 -0.21875 C-11.29991088 -2.73504056 -5.57536438 -1.9562682 0 0 Z " fill="#3D5496" transform="translate(460.5625,235.25)"/>
<path d="M0 0 C1.1146312 -0.00637985 2.22926239 -0.0127597 3.37767029 -0.01933289 C5.19791466 -0.02100212 5.19791466 -0.02100212 7.05493164 -0.02270508 C8.91016197 -0.02769768 8.91016197 -0.02769768 10.8028717 -0.03279114 C13.42489244 -0.03786562 16.04691967 -0.0401993 18.66894531 -0.04003906 C21.36465131 -0.03995762 24.06018808 -0.0469229 26.75585938 -0.06054688 C30.62643688 -0.07878979 34.49681556 -0.08377219 38.36743164 -0.08520508 C39.57890366 -0.09239059 40.79037567 -0.09957611 42.03855896 -0.10697937 C43.15634232 -0.10390274 44.27412567 -0.10082611 45.42578125 -0.09765625 C46.41315781 -0.09908127 47.40053436 -0.10050629 48.41783142 -0.10197449 C50.77758789 0.14526367 50.77758789 0.14526367 52.77758789 2.14526367 C52.22203234 6.70081923 52.22203234 6.70081923 50.77758789 8.14526367 C49.03922498 8.249368 47.29664012 8.28379894 45.55517578 8.29052734 C44.44054459 8.2969072 43.32591339 8.30328705 42.17750549 8.30986023 C40.35726112 8.31152946 40.35726112 8.31152946 38.50024414 8.31323242 C36.64501381 8.31822502 36.64501381 8.31822502 34.75230408 8.32331848 C32.13028334 8.32839297 29.50825611 8.33072665 26.88623047 8.33056641 C24.19052447 8.33048496 21.49498771 8.33745024 18.79931641 8.35107422 C14.92873891 8.36931713 11.05836023 8.37429953 7.18774414 8.37573242 C5.37053612 8.3865107 5.37053612 8.3865107 3.51661682 8.39750671 C2.39883347 8.39443008 1.28105011 8.39135345 0.12939453 8.38818359 C-0.85798203 8.38960861 -1.84535858 8.39103363 -2.86265564 8.39250183 C-5.22241211 8.14526367 -5.22241211 8.14526367 -7.22241211 6.14526367 C-6.51437757 0.33938041 -5.65069428 0.02183227 0 0 Z " fill="#3B5295" transform="translate(355.222412109375,279.854736328125)"/>
<path d="M0 0 C1.13787964 -0.00315216 2.27575928 -0.00630432 3.44812012 -0.009552 C4.6866272 -0.00752777 5.92513428 -0.00550354 7.20117188 -0.00341797 C8.46255981 -0.00437469 9.72394775 -0.00533142 11.02355957 -0.00631714 C13.69689325 -0.00699922 16.37013624 -0.00564076 19.04345703 -0.00097656 C22.47698878 0.00472073 25.91044237 0.00144152 29.34397125 -0.00454903 C32.6088743 -0.00902309 35.87376781 -0.0058943 39.13867188 -0.00341797 C40.37717896 -0.0054422 41.61568604 -0.00746643 42.89172363 -0.009552 C44.02960327 -0.00639984 45.16748291 -0.00324768 46.33984375 0 C47.34720581 0.00079559 48.35456787 0.00159119 49.39245605 0.00241089 C51.66992188 0.12939453 51.66992188 0.12939453 52.66992188 1.12939453 C52.85742188 3.56689453 52.85742188 3.56689453 52.66992188 6.12939453 C50.0829883 8.7163281 49.04053236 8.38684454 45.44165039 8.40405273 C44.35034317 8.41358475 43.25903595 8.42311676 42.13465881 8.43293762 C40.95133469 8.43202621 39.76801056 8.43111481 38.54882812 8.43017578 C36.73257179 8.43660347 36.73257179 8.43660347 34.87962341 8.44316101 C32.31485622 8.44891288 29.75007272 8.4493983 27.18530273 8.44506836 C23.2521593 8.44191038 19.31976898 8.46535132 15.38671875 8.49072266 C12.89908949 8.49299567 10.41145821 8.49369914 7.92382812 8.49267578 C6.74252823 8.50188553 5.56122833 8.51109528 4.34413147 8.52058411 C3.24967209 8.51435532 2.15521271 8.50812653 1.02758789 8.50170898 C-0.41897438 8.50265312 -0.41897438 8.50265312 -1.89476013 8.50361633 C-4.33007812 8.12939453 -4.33007812 8.12939453 -6.18055725 6.73893738 C-7.33007812 5.12939453 -7.33007812 5.12939453 -7.08007812 3.00439453 C-5.59655801 -0.70440577 -3.77930982 0.00298482 0 0 Z " fill="#3F5698" transform="translate(302.330078125,216.87060546875)"/>
<path d="M0 0 C1.48831242 0.00667405 2.97660807 0.01863442 4.46484375 0.03515625 C5.22345703 0.03966797 5.98207031 0.04417969 6.76367188 0.04882812 C8.64326246 0.06064945 10.52281274 0.07858547 12.40234375 0.09765625 C12.40234375 2.40765625 12.40234375 4.71765625 12.40234375 7.09765625 C11.08234375 7.42765625 9.76234375 7.75765625 8.40234375 8.09765625 C8.48904512 11.05746157 8.59587398 14.01412494 8.71484375 16.97265625 C8.73740234 17.81441406 8.75996094 18.65617187 8.78320312 19.5234375 C8.81865234 20.32910156 8.85410156 21.13476562 8.890625 21.96484375 C8.91680908 22.70847168 8.94299316 23.45209961 8.9699707 24.21826172 C9.26963966 26.50499451 9.26963966 26.50499451 12.40234375 28.09765625 C12.40234375 30.40765625 12.40234375 32.71765625 12.40234375 35.09765625 C6.79234375 35.09765625 1.18234375 35.09765625 -4.59765625 35.09765625 C-4.59765625 32.78765625 -4.59765625 30.47765625 -4.59765625 28.09765625 C-3.27765625 27.76765625 -1.95765625 27.43765625 -0.59765625 27.09765625 C-0.59765625 20.82765625 -0.59765625 14.55765625 -0.59765625 8.09765625 C-1.91765625 7.76765625 -3.23765625 7.43765625 -4.59765625 7.09765625 C-4.64019981 5.09810879 -4.63846408 3.09723989 -4.59765625 1.09765625 C-3.59765625 0.09765625 -3.59765625 0.09765625 0 0 Z " fill="#3B5296" transform="translate(621.59765625,233.90234375)"/>
<path d="M0 0 C2.4375 1.5 2.4375 1.5 4 4 C4.62046198 7.13157696 4.63495391 9.8697886 4 13 C1.9375 16.0625 1.9375 16.0625 -1 18 C-4.5625 18.5625 -4.5625 18.5625 -8 18 C-10.36497439 16.13291495 -11.66030715 14.67938569 -13 12 C-13.13357453 8.32670036 -13.1671568 5.50147041 -12 2 C-7.89825246 -1.37790973 -5.04825387 -1.37679651 0 0 Z " fill="#F7F8FB" transform="translate(661,243)"/>
<path d="M0 0 C2.5625 1.4375 2.5625 1.4375 4 4 C4.66613266 7.15970891 4.74013888 9.84880266 4 13 C1.72167306 16.38628046 -1.06627293 17.80944345 -5.0625 18.625 C-9.19835968 17.74502985 -10.5920018 16.47035034 -13 13 C-13.87895834 8.70456883 -13.71784595 5.27963844 -11.5625 1.4375 C-7.72617511 -0.7145847 -4.29295189 -0.74831272 0 0 Z " fill="#F8F9FB" transform="translate(529,243)"/>
<path d="M0 0 C28.38 0 56.76 0 86 0 C86 0.99 86 1.98 86 3 C57.62 3 29.24 3 0 3 C0 2.01 0 1.02 0 0 Z " fill="#3A5195" transform="translate(437,280)"/>
<path d="M0 0 C3.4375 0.8125 3.4375 0.8125 5.4375 3.8125 C5.875 6.25 5.875 6.25 5.4375 8.8125 C3.25 11.1875 3.25 11.1875 0.4375 12.8125 C-2.78587198 12.8125 -4.0486874 12.27493134 -6.4375 10.125 C-7.98209084 6.95000771 -7.5765792 5.14447451 -6.5625 1.8125 C-3.5625 -0.1875 -3.5625 -0.1875 0 0 Z " fill="#3E5597" transform="translate(364.5625,290.1875)"/>
<path d="M0 0 C1.875 1.0625 1.875 1.0625 3 3 C3.4375 6.5 3.4375 6.5 3 10 C1.375 12 1.375 12 -1 13 C-4.67293796 12.77962372 -6.36966546 12.63033454 -9 10 C-9.55021834 3.94759825 -9.55021834 3.94759825 -7.875 1.0625 C-5.11019567 -0.50422245 -3.11811483 -0.38976435 0 0 Z " fill="#3D5496" transform="translate(395,290)"/>
<path d="M0 0 C6.0546875 -0.1953125 6.0546875 -0.1953125 8 0 C8.66 0.66 9.32 1.32 10 2 C9.42307692 8.57692308 9.42307692 8.57692308 8 10 C4.5 10.125 4.5 10.125 1 10 C0 9 0 9 -0.09765625 6.93359375 C-0.08605469 6.10988281 -0.07445312 5.28617188 -0.0625 4.4375 C-0.05347656 3.61121094 -0.04445313 2.78492188 -0.03515625 1.93359375 C-0.02355469 1.29550781 -0.01195312 0.65742188 0 0 Z " fill="#F2F3F8" transform="translate(557,242)"/>
<path d="M0 0 C2.375 0.75 2.375 0.75 3.375 1.75 C3.82959858 4.40463121 4.07743238 7.07189138 4.375 9.75 C-1.6796875 9.9453125 -1.6796875 9.9453125 -3.625 9.75 C-5.625 7.75 -5.625 7.75 -5.9375 5.3125 C-5.625 2.75 -5.625 2.75 -4.4375 0.875 C-2.625 -0.25 -2.625 -0.25 0 0 Z " fill="#576AA4" transform="translate(586.625,276.25)"/>
<path d="M0 0 C3.0625 0.1875 3.0625 0.1875 5.0625 2.1875 C5.3125 4.6875 5.3125 4.6875 5.0625 7.1875 C3.0625 9.1875 3.0625 9.1875 0.5625 9.4375 C-1.9375 9.1875 -1.9375 9.1875 -3.9375 7.1875 C-4.125 4.125 -4.125 4.125 -3.9375 1.1875 C-2.9375 0.1875 -2.9375 0.1875 0 0 Z " fill="#415798" transform="translate(632.9375,276.8125)"/>
<path d="M0 0 C1.65 0 3.3 0 5 0 C7 2 7 2 7.0625 5 C7.041875 5.99 7.02125 6.98 7 8 C7.33 8.66 7.66 9.32 8 10 C6.68 9.67 5.36 9.34 4 9 C4 8.34 4 7.68 4 7 C3.34 7 2.68 7 2 7 C2 7.99 2 8.98 2 10 C1.34 10 0.68 10 0 10 C0 6.7 0 3.4 0 0 Z " fill="#5C70A7" transform="translate(640,276)"/>
<path d="M0 0 C0.66 0 1.32 0 2 0 C2 1.32 2 2.64 2 4 C2.99 4 3.98 4 5 4 C5 2.68 5 1.36 5 0 C5.99 0.33 6.98 0.66 8 1 C8 3.97 8 6.94 8 10 C7.01 10 6.02 10 5 10 C5 8.68 5 7.36 5 6 C4.01 6 3.02 6 2 6 C2 7.32 2 8.64 2 10 C1.34 10 0.68 10 0 10 C0 6.7 0 3.4 0 0 Z " fill="#4F63A0" transform="translate(535,276)"/>
<path d="M0 0 C0.66 0 1.32 0 2 0 C2 3.3 2 6.6 2 10 C0.68 9.01 -0.64 8.02 -2 7 C-2.33 7.99 -2.66 8.98 -3 10 C-3.99 10 -4.98 10 -6 10 C-6 7.03 -6 4.06 -6 1 C-2 3 -2 3 -1 4 C-0.67 2.68 -0.34 1.36 0 0 Z " fill="#4B609E" transform="translate(571,276)"/>
<path d="M0 0 C1.98 0 3.96 0 6 0 C6 1.98 6 3.96 6 6 C5.01 6 4.02 6 3 6 C3 6.66 3 7.32 3 8 C3.99 8 4.98 8 6 8 C6 8.66 6 9.32 6 10 C4.02 10 2.04 10 0 10 C0 6.7 0 3.4 0 0 Z " fill="#5367A2" transform="translate(649,276)"/>
<path d="M0 0 C0.66 0 1.32 0 2 0 C2 2.64 2 5.28 2 8 C2.99 8 3.98 8 5 8 C5 5.36 5 2.72 5 0 C5.99 0.33 6.98 0.66 8 1 C8.125 4.375 8.125 4.375 8 8 C7.34 8.66 6.68 9.32 6 10 C1.44444444 9.44444444 1.44444444 9.44444444 0 8 C-0.14115161 5.32941149 -0.04247107 2.67567762 0 0 Z " fill="#596CA5" transform="translate(592,276)"/>
<path d="M0 0 C1.98 0 3.96 0 6 0 C6 0.66 6 1.32 6 2 C5.01 2.495 5.01 2.495 4 3 C4.99 3.66 5.98 4.32 7 5 C6.67 6.32 6.34 7.64 6 9 C4.02 9 2.04 9 0 9 C0 8.01 0 7.02 0 6 C1.32 6.33 2.64 6.66 4 7 C4 6.34 4 5.68 4 5 C2.68 5 1.36 5 0 5 C0 3.35 0 1.7 0 0 Z " fill="#4D629F" transform="translate(613,277)"/>
<path d="M0 0 C0.66 0 1.32 0 2 0 C2 2.64 2 5.28 2 8 C2.99 8 3.98 8 5 8 C5 5.36 5 2.72 5 0 C5.66 0 6.32 0 7 0 C7.02689216 1.47906892 7.04634621 2.95827483 7.0625 4.4375 C7.07410156 5.26121094 7.08570313 6.08492188 7.09765625 6.93359375 C7 9 7 9 6 10 C3.5 10.125 3.5 10.125 1 10 C0 9 0 9 -0.09765625 6.93359375 C-0.08605469 6.10988281 -0.07445312 5.28617187 -0.0625 4.4375 C-0.05347656 3.61121094 -0.04445313 2.78492188 -0.03515625 1.93359375 C-0.02355469 1.29550781 -0.01195312 0.65742188 0 0 Z " fill="#445A9A" transform="translate(556,276)"/>
<path d="M0 0 C1.65 0 3.3 0 5 0 C5 1.98 5 3.96 5 6 C4.01 6 3.02 6 2 6 C2 6.66 2 7.32 2 8 C3.32 8 4.64 8 6 8 C6 8.66 6 9.32 6 10 C4.02 10 2.04 10 0 10 C0 6.7 0 3.4 0 0 Z " fill="#3E5597" transform="translate(545,276)"/>
<path d="M0 0 C1.65 0 3.3 0 5 0 C5 1.98 5 3.96 5 6 C4.01 6 3.02 6 2 6 C2 6.66 2 7.32 2 8 C2.99 8 3.98 8 5 8 C5 8.66 5 9.32 5 10 C3.35 10 1.7 10 0 10 C0 6.7 0 3.4 0 0 Z " fill="#374E93" transform="translate(602,276)"/>
<path d="M0 0 C1.65 0 3.3 0 5 0 C5 3.3 5 6.6 5 10 C3.35 10 1.7 10 0 10 C0 6.7 0 3.4 0 0 Z " fill="#586BA5" transform="translate(575,276)"/>
<path d="M0 0 C2.31 0 4.62 0 7 0 C7 0.99 7 1.98 7 3 C6.01 3 5.02 3 4 3 C4 5.31 4 7.62 4 10 C3.34 10 2.68 10 2 10 C2 7.69 2 5.38 2 3 C1.34 3 0.68 3 0 3 C0 2.01 0 1.02 0 0 Z " fill="#5468A3" transform="translate(621,276)"/>
<path d="M0 0 C1.98 0 3.96 0 6 0 C6 0.99 6 1.98 6 3 C5.34 3 4.68 3 4 3 C4 5.31 4 7.62 4 10 C3.34 10 2.68 10 2 10 C2 7.69 2 5.38 2 3 C1.01 3 0.02 3 -1 3 C-0.67 2.01 -0.34 1.02 0 0 Z " fill="#5065A1" transform="translate(527,276)"/>
<path d="M0 0 C2.475 0.495 2.475 0.495 5 1 C5.33 3.64 5.66 6.28 6 9 C4.35 9 2.7 9 1 9 C1.20625 7.88625 1.4125 6.7725 1.625 5.625 C1.74875 4.42875 1.8725 3.2325 2 2 C1.34 1.34 0.68 0.68 0 0 Z " fill="#3F5597" transform="translate(585,277)"/>
<path d="M0 0 C0.33 0 0.66 0 1 0 C2.125 7.75 2.125 7.75 1 10 C-1.64 10 -4.28 10 -7 10 C-7 9.67 -7 9.34 -7 9 C-5.02 8.67 -3.04 8.34 -1 8 C-1.020625 6.865625 -1.04125 5.73125 -1.0625 4.5625 C-1 1 -1 1 0 0 Z " fill="#CFD5E5" transform="translate(591,277)"/>
<path d="M0 0 C0.66666667 2.66666667 1.33333333 5.33333333 2 8 C0.68 7.67 -0.64 7.34 -2 7 C-2 6.34 -2 5.68 -2 5 C-2.66 5 -3.32 5 -4 5 C-4 4.34 -4 3.68 -4 3 C-3.01 3 -2.02 3 -1 3 C-0.67 2.01 -0.34 1.02 0 0 Z " fill="#3F5698" transform="translate(646,278)"/>
<path d="M0 0 C1.98 0.495 1.98 0.495 4 1 C3.67 2.32 3.34 3.64 3 5 C1.68 4.67 0.36 4.34 -1 4 C-0.67 2.68 -0.34 1.36 0 0 Z " fill="#E4E7F0" transform="translate(632,279)"/>
<path d="M0 0 C0.99 0 1.98 0 3 0 C3 2.31 3 4.62 3 7 C2.01 7 1.02 7 0 7 C0 4.69 0 2.38 0 0 Z " fill="#E8EAF2" transform="translate(558,277)"/>
<path d="M0 0 C1.32 0 2.64 0 4 0 C3.67 1.65 3.34 3.3 3 5 C2.01 5 1.02 5 0 5 C0 3.35 0 1.7 0 0 Z " fill="#EDEFF5" transform="translate(584,279)"/>
<path d="M0 0 C1.67542976 0.28604898 3.34385343 0.61781233 5 1 C5.33 2.65 5.66 4.3 6 6 C5.34 6 4.68 6 4 6 C3.67 5.01 3.34 4.02 3 3 C0.99983534 1.79117904 0.99983534 1.79117904 -1 1 C-0.67 0.67 -0.34 0.34 0 0 Z " fill="#395094" transform="translate(632,277)"/>
<path d="M0 0 C1.65 0 3.3 0 5 0 C5 0.99 5 1.98 5 3 C3.35 3.33 1.7 3.66 0 4 C0 2.68 0 1.36 0 0 Z " fill="#5669A4" transform="translate(602,276)"/>
<path d="M0 0 C1.65 0 3.3 0 5 0 C5 0.99 5 1.98 5 3 C3.35 3.33 1.7 3.66 0 4 C0 2.68 0 1.36 0 0 Z " fill="#566AA4" transform="translate(545,276)"/>
</svg>
