<svg width="22" height="22" viewBox="0 0 22 22" fill="none" xmlns="http://www.w3.org/2000/svg">
<path d="M20.5 11.0001C20.5 16.2468 16.2467 20.5001 11 20.5001C5.75329 20.5001 1.5 16.2468 1.5 11.0001C1.5 5.75336 5.75329 1.50006 11 1.50006C16.2467 1.50006 20.5 5.75336 20.5 11.0001Z" fill="#98A2BD" stroke="#191930"/>
<path opacity="0.15" d="M20.1928 12.3243C20.2634 11.8599 20.3 11.3842 20.3 10.9001C20.3 5.70858 16.0915 1.50006 10.9 1.50006C5.70852 1.50006 1.5 5.70858 1.5 10.9001C1.5 11.3842 1.53661 11.8599 1.6072 12.3243C2.29356 7.80872 6.1927 4.3486 10.9 4.3486C15.6073 4.3486 19.5064 7.80872 20.1928 12.3243Z" fill="#191930"/>
<path d="M13.7992 8.80006C13.7992 10.3465 12.5456 11.6001 10.9992 11.6001C9.45282 11.6001 8.19922 10.3465 8.19922 8.80006C8.19922 7.25366 9.45282 6.00006 10.9992 6.00006C12.5456 6.00006 13.7992 7.25366 13.7992 8.80006Z" fill="#B0BAD4" stroke="#191930"/>
<path d="M11 20.5001C8.67672 20.5001 6.54922 19.6667 4.89844 18.2819V17.2001C4.89844 15.2671 6.46544 13.7001 8.39844 13.7001H13.5984C15.5314 13.7001 17.0984 15.2671 17.0984 17.2001V18.2845C15.4481 19.6677 13.3218 20.5001 11 20.5001Z" fill="#B0BAD4" stroke="#191930"/>
</svg>
