<svg width="22" height="22" viewBox="0 0 22 22" fill="none" xmlns="http://www.w3.org/2000/svg">
<path d="M18.3638 16.8022V17.1407L18.6781 17.2664L19.0726 17.4242L12.6011 20.1977C12.1734 20.3811 11.6848 20.3555 11.2785 20.1284L5.38217 16.8334C4.29541 16.2261 4.37875 14.6357 5.52303 14.1453L8.1429 13.0225C9.39898 12.4842 10.8105 12.4327 12.1024 12.8782L18.3638 15.0373V16.8022Z" fill="#98A2BD" stroke="#191930"/>
<path d="M10.7881 19.3781C10.7881 19.5473 10.817 19.7002 10.8649 19.8374C10.7935 19.7989 10.7173 19.7556 10.6362 19.707C9.46601 19.0049 4.57912 16.3568 2.35147 15.1533C1.81622 14.8642 1.48438 14.3065 1.48438 13.6968C1.48438 13.0272 1.88782 12.4237 2.50649 12.1677L8.17424 9.8224C9.16336 9.41311 10.2854 9.47897 11.2198 10.0012L18.9314 14.3105L12.3323 17.0412C11.3977 17.428 10.7881 18.3396 10.7881 19.3512V19.3512V19.3513V19.3513V19.3514V19.3514V19.3515V19.3515V19.3516V19.3516V19.3517V19.3517V19.3518V19.3518V19.3519V19.3519V19.352V19.352V19.3521V19.3522V19.3522V19.3523V19.3523V19.3524V19.3524V19.3525V19.3525V19.3526V19.3526V19.3527V19.3527V19.3528V19.3528V19.3529V19.3529V19.353V19.353V19.3531V19.3532V19.3532V19.3533V19.3533V19.3534V19.3534V19.3535V19.3535V19.3536V19.3536V19.3537V19.3537V19.3538V19.3538V19.3539V19.3539V19.354V19.354V19.3541V19.3542V19.3542V19.3543V19.3543V19.3544V19.3544V19.3545V19.3545V19.3546V19.3546V19.3547V19.3547V19.3548V19.3548V19.3549V19.3549V19.355V19.355V19.3551V19.3551V19.3552V19.3553V19.3553V19.3554V19.3554V19.3555V19.3555V19.3556V19.3556V19.3557V19.3557V19.3558V19.3558V19.3559V19.3559V19.356V19.356V19.3561V19.3561V19.3562V19.3563V19.3563V19.3564V19.3564V19.3565V19.3565V19.3566V19.3566V19.3567V19.3567V19.3568V19.3568V19.3569V19.3569V19.357V19.357V19.3571V19.3571V19.3572V19.3573V19.3573V19.3574V19.3574V19.3575V19.3575V19.3576V19.3576V19.3577V19.3577V19.3578V19.3578V19.3579V19.3579V19.358V19.358V19.3581V19.3581V19.3582V19.3583V19.3583V19.3584V19.3584V19.3585V19.3585V19.3586V19.3586V19.3587V19.3587V19.3588V19.3588V19.3589V19.3589V19.359V19.359V19.3591V19.3591V19.3592V19.3593V19.3593V19.3594V19.3594V19.3595V19.3595V19.3596V19.3596V19.3597V19.3597V19.3598V19.3598V19.3599V19.3599V19.36V19.36V19.3601V19.3601V19.3602V19.3603V19.3603V19.3604V19.3604V19.3605V19.3605V19.3606V19.3606V19.3607V19.3607V19.3608V19.3608V19.3609V19.3609V19.361V19.361V19.3611V19.3611V19.3612V19.3613V19.3613V19.3614V19.3614V19.3615V19.3615V19.3616V19.3616V19.3617V19.3617V19.3618V19.3618V19.3619V19.3619V19.362V19.362V19.3621V19.3621V19.3622V19.3623V19.3623V19.3624V19.3624V19.3625V19.3625V19.3626V19.3626V19.3627V19.3627V19.3628V19.3628V19.3629V19.3629V19.363V19.363V19.3631V19.3631V19.3632V19.3633V19.3633V19.3634V19.3634V19.3635V19.3635V19.3636V19.3636V19.3637V19.3637V19.3638V19.3638V19.3639V19.3639V19.364V19.364V19.3641V19.3641V19.3642V19.3643V19.3643V19.3644V19.3644V19.3645V19.3645V19.3646V19.3646V19.3647V19.3647V19.3648V19.3648V19.3649V19.3649V19.365V19.365V19.3651V19.3651V19.3652V19.3653V19.3653V19.3654V19.3654V19.3655V19.3655V19.3656V19.3656V19.3657V19.3657V19.3658V19.3658V19.3659V19.3659V19.366V19.366V19.3661V19.3661V19.3662V19.3663V19.3663V19.3664V19.3664V19.3665V19.3665V19.3666V19.3666V19.3667V19.3667V19.3668V19.3668V19.3669V19.3669V19.367V19.367V19.3671V19.3672V19.3672V19.3673V19.3673V19.3674V19.3674V19.3675V19.3675V19.3676V19.3676V19.3677V19.3677V19.3678V19.3678V19.3679V19.3679V19.368V19.368V19.3681V19.3682V19.3682V19.3683V19.3683V19.3684V19.3684V19.3685V19.3685V19.3686V19.3686V19.3687V19.3687V19.3688V19.3688V19.3689V19.3689V19.369V19.369V19.3691V19.3692V19.3692V19.3693V19.3693V19.3694V19.3694V19.3695V19.3695V19.3696V19.3696V19.3697V19.3697V19.3698V19.3698V19.3699V19.3699V19.37V19.37V19.3701V19.3702V19.3702V19.3703V19.3703V19.3704V19.3704V19.3705V19.3705V19.3706V19.3706V19.3707V19.3707V19.3708V19.3708V19.3709V19.3709V19.371V19.3711V19.3711V19.3712V19.3712V19.3713V19.3713V19.3714V19.3714V19.3715V19.3715V19.3716V19.3716V19.3717V19.3717V19.3718V19.3718V19.3719V19.3719V19.372V19.3721V19.3721V19.3722V19.3722V19.3723V19.3723V19.3724V19.3724V19.3725V19.3725V19.3726V19.3726V19.3727V19.3727V19.3728V19.3728V19.3729V19.3729V19.373V19.3731V19.3731V19.3732V19.3732V19.3733V19.3733V19.3734V19.3734V19.3735V19.3735V19.3736V19.3736V19.3737V19.3737V19.3738V19.3738V19.3739V19.374V19.374V19.3741V19.3741V19.3742V19.3742V19.3743V19.3743V19.3744V19.3744V19.3745V19.3745V19.3746V19.3746V19.3747V19.3747V19.3748V19.3748V19.3749V19.375V19.375V19.3751V19.3751V19.3752V19.3752V19.3753V19.3753V19.3754V19.3754V19.3755V19.3755V19.3756V19.3756V19.3757V19.3757V19.3758V19.3759V19.3759V19.376V19.376V19.3761V19.3761V19.3762V19.3762V19.3763V19.3763V19.3764V19.3764V19.3765V19.3765V19.3766V19.3766V19.3767V19.3767V19.3768V19.3769V19.3769V19.377V19.377V19.3771V19.3771V19.3772V19.3772V19.3773V19.3773V19.3774V19.3774V19.3775V19.3775V19.3776V19.3776V19.3777V19.3778V19.3778V19.3779V19.3779V19.378V19.378V19.3781V19.3781Z" fill="#B0BAD4" stroke="#191930"/>
<path opacity="0.15" d="M2.2321 15.5355C4.25144 16.7145 8.91435 19.0517 10.0908 19.7576C11.6061 20.6668 11.8939 20.4389 11.8939 20.4389C11.8939 20.4389 11 19.7576 11 19C11 17.9704 10.4294 17.3991 9.53204 16.8943L2.70901 13.0564C2.07298 12.6986 1.28711 13.1582 1.28711 13.888C1.28711 14.5667 1.64597 15.1933 2.2321 15.5355Z" fill="#191930"/>
<path d="M9.84969 8.75301L7.22981 9.87582C5.70411 10.5297 5.593 12.6503 7.04201 13.46L12.9383 16.755C13.48 17.0577 14.1315 17.0918 14.7018 16.8474L21.1733 14.0739C21.5827 13.8984 21.5756 13.3155 21.162 13.1501L20.7675 12.9923V10.871L14.1692 8.59565C12.7598 8.10966 11.22 8.16576 9.84969 8.75301Z" fill="#98A2BD"/>
<path fill-rule="evenodd" clip-rule="evenodd" d="M19.7675 13.5884V11.5839L13.8432 9.54102C12.6687 9.13603 11.3855 9.18278 10.2436 9.67216L7.62373 10.795C6.86088 11.1219 6.80532 12.1822 7.52983 12.5871L13.4262 15.8821C13.697 16.0334 14.0227 16.0505 14.3079 15.9283L19.7675 13.5884ZM20.7675 10.871V12.9923L21.162 13.1501C21.5756 13.3155 21.5827 13.8984 21.1733 14.0739L14.7018 16.8474C14.1315 17.0918 13.48 17.0577 12.9383 16.755L7.04201 13.46C5.593 12.6503 5.70411 10.5297 7.22981 9.87582L9.84969 8.75301C11.22 8.16576 12.7598 8.10966 14.1692 8.59565L20.7675 10.871Z" fill="#191930"/>
<path d="M12.6905 15.5682C12.6905 15.7375 12.7194 15.8903 12.7673 16.0275C12.6958 15.989 12.6196 15.9458 12.5386 15.8971C11.3684 15.195 6.48147 12.5469 4.25381 11.3435C3.71856 11.0543 3.38672 10.4966 3.38672 9.88692C3.38672 9.21737 3.79017 8.6138 4.40883 8.3578L10.0766 6.01253C11.0657 5.60324 12.1877 5.66909 13.1222 6.19128L20.8337 10.5007L14.2346 13.2313C13.3 13.6181 12.6905 14.5298 12.6905 15.5413V15.5413V15.5414V15.5414V15.5415V15.5415V15.5416V15.5416V15.5417V15.5418V15.5418V15.5419V15.5419V15.542V15.542V15.5421V15.5421V15.5422V15.5422V15.5423V15.5423V15.5424V15.5424V15.5425V15.5425V15.5426V15.5426V15.5427V15.5428V15.5428V15.5429V15.5429V15.543V15.543V15.5431V15.5431V15.5432V15.5432V15.5433V15.5433V15.5434V15.5434V15.5435V15.5435V15.5436V15.5436V15.5437V15.5437V15.5438V15.5439V15.5439V15.544V15.544V15.5441V15.5441V15.5442V15.5442V15.5443V15.5443V15.5444V15.5444V15.5445V15.5445V15.5446V15.5446V15.5447V15.5447V15.5448V15.5449V15.5449V15.545V15.545V15.5451V15.5451V15.5452V15.5452V15.5453V15.5453V15.5454V15.5454V15.5455V15.5455V15.5456V15.5456V15.5457V15.5457V15.5458V15.5459V15.5459V15.546V15.546V15.5461V15.5461V15.5462V15.5462V15.5463V15.5463V15.5464V15.5464V15.5465V15.5465V15.5466V15.5466V15.5467V15.5467V15.5468V15.5469V15.5469V15.547V15.547V15.5471V15.5471V15.5472V15.5472V15.5473V15.5473V15.5474V15.5474V15.5475V15.5475V15.5476V15.5476V15.5477V15.5477V15.5478V15.5479V15.5479V15.548V15.548V15.5481V15.5481V15.5482V15.5482V15.5483V15.5483V15.5484V15.5484V15.5485V15.5485V15.5486V15.5486V15.5487V15.5487V15.5488V15.5489V15.5489V15.549V15.549V15.5491V15.5491V15.5492V15.5492V15.5493V15.5493V15.5494V15.5494V15.5495V15.5495V15.5496V15.5496V15.5497V15.5497V15.5498V15.5499V15.5499V15.55V15.55V15.5501V15.5501V15.5502V15.5502V15.5503V15.5503V15.5504V15.5504V15.5505V15.5505V15.5506V15.5506V15.5507V15.5507V15.5508V15.5508V15.5509V15.551V15.551V15.5511V15.5511V15.5512V15.5512V15.5513V15.5513V15.5514V15.5514V15.5515V15.5515V15.5516V15.5516V15.5517V15.5517V15.5518V15.5519V15.5519V15.552V15.552V15.5521V15.5521V15.5522V15.5522V15.5523V15.5523V15.5524V15.5524V15.5525V15.5525V15.5526V15.5526V15.5527V15.5527V15.5528V15.5529V15.5529V15.553V15.553V15.5531V15.5531V15.5532V15.5532V15.5533V15.5533V15.5534V15.5534V15.5535V15.5535V15.5536V15.5536V15.5537V15.5537V15.5538V15.5539V15.5539V15.554V15.554V15.5541V15.5541V15.5542V15.5542V15.5543V15.5543V15.5544V15.5544V15.5545V15.5545V15.5546V15.5546V15.5547V15.5547V15.5548V15.5549V15.5549V15.555V15.555V15.5551V15.5551V15.5552V15.5552V15.5553V15.5553V15.5554V15.5554V15.5555V15.5555V15.5556V15.5556V15.5557V15.5557V15.5558V15.5559V15.5559V15.556V15.556V15.5561V15.5561V15.5562V15.5562V15.5563V15.5563V15.5564V15.5564V15.5565V15.5565V15.5566V15.5566V15.5567V15.5567V15.5568V15.5569V15.5569V15.557V15.557V15.5571V15.5571V15.5572V15.5572V15.5573V15.5573V15.5574V15.5574V15.5575V15.5575V15.5576V15.5576V15.5577V15.5577V15.5578V15.5579V15.5579V15.558V15.558V15.5581V15.5581V15.5582V15.5582V15.5583V15.5583V15.5584V15.5584V15.5585V15.5585V15.5586V15.5586V15.5587V15.5588V15.5588V15.5589V15.5589V15.559V15.559V15.5591V15.5591V15.5592V15.5592V15.5593V15.5593V15.5594V15.5594V15.5595V15.5595V15.5596V15.5596V15.5597V15.5598V15.5598V15.5599V15.5599V15.56V15.56V15.5601V15.5601V15.5602V15.5602V15.5603V15.5603V15.5604V15.5604V15.5605V15.5605V15.5606V15.5606V15.5607V15.5608V15.5608V15.5609V15.5609V15.561V15.561V15.5611V15.5611V15.5612V15.5612V15.5613V15.5613V15.5614V15.5614V15.5615V15.5615V15.5616V15.5616V15.5617V15.5618V15.5618V15.5619V15.5619V15.562V15.562V15.5621V15.5621V15.5622V15.5622V15.5623V15.5623V15.5624V15.5624V15.5625V15.5625V15.5626V15.5627V15.5627V15.5628V15.5628V15.5629V15.5629V15.563V15.563V15.5631V15.5631V15.5632V15.5632V15.5633V15.5633V15.5634V15.5634V15.5635V15.5635V15.5636V15.5637V15.5637V15.5638V15.5638V15.5639V15.5639V15.564V15.564V15.5641V15.5641V15.5642V15.5642V15.5643V15.5643V15.5644V15.5644V15.5645V15.5646V15.5646V15.5647V15.5647V15.5648V15.5648V15.5649V15.5649V15.565V15.565V15.5651V15.5651V15.5652V15.5652V15.5653V15.5653V15.5654V15.5654V15.5655V15.5656V15.5656V15.5657V15.5657V15.5658V15.5658V15.5659V15.5659V15.566V15.566V15.5661V15.5661V15.5662V15.5662V15.5663V15.5663V15.5664V15.5665V15.5665V15.5666V15.5666V15.5667V15.5667V15.5668V15.5668V15.5669V15.5669V15.567V15.567V15.5671V15.5671V15.5672V15.5672V15.5673V15.5673V15.5674V15.5675V15.5675V15.5676V15.5676V15.5677V15.5677V15.5678V15.5678V15.5679V15.5679V15.568V15.568V15.5681V15.5681V15.5682V15.5682Z" fill="#B0BAD4" stroke="#191930"/>
<path opacity="0.15" d="M4.13444 11.7256C6.15378 12.9045 10.8015 15.62 11.978 16.3259C13.4932 17.2351 13.7963 16.629 13.7963 16.629C13.7963 16.629 12.8871 16.3259 12.8871 15.5683C12.8871 14.5387 12.3318 13.5891 11.4344 13.0844L4.61136 9.24642C3.97533 8.88865 3.18945 9.34827 3.18945 10.078C3.18945 10.7567 3.54832 11.3834 4.13444 11.7256Z" fill="#191930"/>
<path d="M18.0195 9.18238V9.5209L18.3338 9.64662L18.7283 9.80441L12.2568 12.5779C11.8291 12.7612 11.3405 12.7356 10.9342 12.5086L5.03787 9.21359C3.95111 8.60628 4.03445 7.01586 5.17873 6.52546L7.79861 5.40265C9.05469 4.86433 10.4662 4.81291 11.7581 5.2584L18.0195 7.4175V9.18238Z" fill="#98A2BD" stroke="#191930"/>
<path d="M10.4424 11.7583C10.4424 11.9275 10.4713 12.0804 10.5192 12.2176C10.4478 12.1791 10.3716 12.1358 10.2905 12.0872C9.12031 11.3851 4.23342 8.737 2.00576 7.53353C1.47051 7.24437 1.13867 6.68669 1.13867 6.07698C1.13867 5.40744 1.54212 4.80387 2.16079 4.54787L7.82854 2.20259C8.81766 1.7933 9.93969 1.85916 10.8741 2.38135L18.5857 6.69074L11.9866 9.42141C11.052 9.80814 10.4424 10.7198 10.4424 11.7313V11.7314V11.7314V11.7315V11.7316V11.7316V11.7317V11.7317V11.7318V11.7318V11.7319V11.7319V11.732V11.732V11.7321V11.7321V11.7322V11.7322V11.7323V11.7323V11.7324V11.7324V11.7325V11.7326V11.7326V11.7327V11.7327V11.7328V11.7328V11.7329V11.7329V11.733V11.733V11.7331V11.7331V11.7332V11.7332V11.7333V11.7333V11.7334V11.7334V11.7335V11.7336V11.7336V11.7337V11.7337V11.7338V11.7338V11.7339V11.7339V11.734V11.734V11.7341V11.7341V11.7342V11.7342V11.7343V11.7343V11.7344V11.7344V11.7345V11.7345V11.7346V11.7347V11.7347V11.7348V11.7348V11.7349V11.7349V11.735V11.735V11.7351V11.7351V11.7352V11.7352V11.7353V11.7353V11.7354V11.7354V11.7355V11.7355V11.7356V11.7357V11.7357V11.7358V11.7358V11.7359V11.7359V11.736V11.736V11.7361V11.7361V11.7362V11.7362V11.7363V11.7363V11.7364V11.7364V11.7365V11.7365V11.7366V11.7367V11.7367V11.7368V11.7368V11.7369V11.7369V11.737V11.737V11.7371V11.7371V11.7372V11.7372V11.7373V11.7373V11.7374V11.7374V11.7375V11.7375V11.7376V11.7377V11.7377V11.7378V11.7378V11.7379V11.7379V11.738V11.738V11.7381V11.7381V11.7382V11.7382V11.7383V11.7383V11.7384V11.7384V11.7385V11.7385V11.7386V11.7387V11.7387V11.7388V11.7388V11.7389V11.7389V11.739V11.739V11.7391V11.7391V11.7392V11.7392V11.7393V11.7393V11.7394V11.7394V11.7395V11.7395V11.7396V11.7397V11.7397V11.7398V11.7398V11.7399V11.7399V11.74V11.74V11.7401V11.7401V11.7402V11.7402V11.7403V11.7403V11.7404V11.7404V11.7405V11.7405V11.7406V11.7407V11.7407V11.7408V11.7408V11.7409V11.7409V11.741V11.741V11.7411V11.7411V11.7412V11.7412V11.7413V11.7413V11.7414V11.7414V11.7415V11.7415V11.7416V11.7417V11.7417V11.7418V11.7418V11.7419V11.7419V11.742V11.742V11.7421V11.7421V11.7422V11.7422V11.7423V11.7423V11.7424V11.7424V11.7425V11.7425V11.7426V11.7427V11.7427V11.7428V11.7428V11.7429V11.7429V11.743V11.743V11.7431V11.7431V11.7432V11.7432V11.7433V11.7433V11.7434V11.7434V11.7435V11.7435V11.7436V11.7437V11.7437V11.7438V11.7438V11.7439V11.7439V11.744V11.744V11.7441V11.7441V11.7442V11.7442V11.7443V11.7443V11.7444V11.7444V11.7445V11.7445V11.7446V11.7447V11.7447V11.7448V11.7448V11.7449V11.7449V11.745V11.745V11.7451V11.7451V11.7452V11.7452V11.7453V11.7453V11.7454V11.7454V11.7455V11.7455V11.7456V11.7457V11.7457V11.7458V11.7458V11.7459V11.7459V11.746V11.746V11.7461V11.7461V11.7462V11.7462V11.7463V11.7463V11.7464V11.7464V11.7465V11.7465V11.7466V11.7467V11.7467V11.7468V11.7468V11.7469V11.7469V11.747V11.747V11.7471V11.7471V11.7472V11.7472V11.7473V11.7473V11.7474V11.7474V11.7475V11.7475V11.7476V11.7477V11.7477V11.7478V11.7478V11.7479V11.7479V11.748V11.748V11.7481V11.7481V11.7482V11.7482V11.7483V11.7483V11.7484V11.7484V11.7485V11.7486V11.7486V11.7487V11.7487V11.7488V11.7488V11.7489V11.7489V11.749V11.749V11.7491V11.7491V11.7492V11.7492V11.7493V11.7493V11.7494V11.7494V11.7495V11.7496V11.7496V11.7497V11.7497V11.7498V11.7498V11.7499V11.7499V11.75V11.75V11.7501V11.7501V11.7502V11.7502V11.7503V11.7503V11.7504V11.7504V11.7505V11.7506V11.7506V11.7507V11.7507V11.7508V11.7508V11.7509V11.7509V11.751V11.751V11.7511V11.7511V11.7512V11.7512V11.7513V11.7513V11.7514V11.7515V11.7515V11.7516V11.7516V11.7517V11.7517V11.7518V11.7518V11.7519V11.7519V11.752V11.752V11.7521V11.7521V11.7522V11.7522V11.7523V11.7523V11.7524V11.7525V11.7525V11.7526V11.7526V11.7527V11.7527V11.7528V11.7528V11.7529V11.7529V11.753V11.753V11.7531V11.7531V11.7532V11.7532V11.7533V11.7533V11.7534V11.7535V11.7535V11.7536V11.7536V11.7537V11.7537V11.7538V11.7538V11.7539V11.7539V11.754V11.754V11.7541V11.7541V11.7542V11.7542V11.7543V11.7544V11.7544V11.7545V11.7545V11.7546V11.7546V11.7547V11.7547V11.7548V11.7548V11.7549V11.7549V11.755V11.755V11.7551V11.7551V11.7552V11.7552V11.7553V11.7554V11.7554V11.7555V11.7555V11.7556V11.7556V11.7557V11.7557V11.7558V11.7558V11.7559V11.7559V11.756V11.756V11.7561V11.7561V11.7562V11.7563V11.7563V11.7564V11.7564V11.7565V11.7565V11.7566V11.7566V11.7567V11.7567V11.7568V11.7568V11.7569V11.7569V11.757V11.757V11.7571V11.7571V11.7572V11.7573V11.7573V11.7574V11.7574V11.7575V11.7575V11.7576V11.7576V11.7577V11.7577V11.7578V11.7578V11.7579V11.7579V11.758V11.758V11.7581V11.7582V11.7582V11.7583V11.7583Z" fill="#B0BAD4" stroke="#191930"/>
<path opacity="0.15" d="M1.8864 7.91566C3.90574 9.09458 8.55341 11.8101 9.72991 12.516C11.2452 13.4252 11.5482 12.8191 11.5482 12.8191C11.5482 12.8191 10.6391 12.516 10.6391 11.7584C10.6391 10.7288 10.0837 9.77921 9.18633 9.27444L2.36331 5.43648C1.72728 5.07872 0.941406 5.53834 0.941406 6.26808C0.941406 6.94679 1.30027 7.57346 1.8864 7.91566Z" fill="#191930"/>
</svg>
