<svg width="26" height="26" viewBox="0 0 26 26" fill="none" xmlns="http://www.w3.org/2000/svg">
<path fill-rule="evenodd" clip-rule="evenodd" d="M13 24.7078C19.4661 24.7078 24.7078 19.4661 24.7078 13C24.7078 6.53395 19.4661 1.29218 13 1.29218C6.53395 1.29218 1.29218 6.53395 1.29218 13C1.29218 19.4661 6.53395 24.7078 13 24.7078ZM13 26C20.1797 26 26 20.1797 26 13C26 5.8203 20.1797 0 13 0C5.8203 0 0 5.8203 0 13C0 20.1797 5.8203 26 13 26Z" fill="white"/>
<path fill-rule="evenodd" clip-rule="evenodd" d="M5.59726 12.354C5.95408 12.354 6.24335 12.6432 6.24335 13C6.24335 16.7356 9.27165 19.764 13.0073 19.764C16.7429 19.764 19.7712 16.7356 19.7712 13C19.7712 12.6432 20.0604 12.354 20.4173 12.354C20.7741 12.354 21.0633 12.6432 21.0633 13C21.0633 17.4493 17.4565 21.0561 13.0073 21.0561C8.558 21.0561 4.95117 17.4493 4.95117 13C4.95117 12.6432 5.24044 12.354 5.59726 12.354Z" fill="white"/>
<path d="M10.7953 10.0102C10.7953 10.7281 10.2133 11.3102 9.49531 11.3102C8.77734 11.3102 8.19531 10.7281 8.19531 10.0102C8.19531 9.29219 8.77734 8.71016 9.49531 8.71016C10.2133 8.71016 10.7953 9.29219 10.7953 10.0102Z" fill="white"/>
<path d="M17.6781 10.0102C17.6781 10.7281 17.0961 11.3102 16.3781 11.3102C15.6602 11.3102 15.0781 10.7281 15.0781 10.0102C15.0781 9.29219 15.6602 8.71016 16.3781 8.71016C17.0961 8.71016 17.6781 9.29219 17.6781 10.0102Z" fill="white"/>
</svg>
