<svg width="22" height="22" viewBox="0 0 22 22" fill="none" xmlns="http://www.w3.org/2000/svg">
<path d="M1 7C1 3.68629 3.68629 1 7 1H15C18.3137 1 21 3.68629 21 7V15C21 18.3137 18.3137 21 15 21H7C3.68629 21 1 18.3137 1 15V7Z" fill="#98A2BD"/>
<path fill-rule="evenodd" clip-rule="evenodd" d="M15 2H7C4.23858 2 2 4.23858 2 7V15C2 17.7614 4.23858 20 7 20H15C17.7614 20 20 17.7614 20 15V7C20 4.23858 17.7614 2 15 2ZM7 1C3.68629 1 1 3.68629 1 7V15C1 18.3137 3.68629 21 7 21H15C18.3137 21 21 18.3137 21 15V7C21 3.68629 18.3137 1 15 1H7Z" fill="#191930"/>
<path fill-rule="evenodd" clip-rule="evenodd" d="M7 1C3.68629 1 1 3.68629 1 7V10C1 6.68629 3.68629 4 7 4H15C18.3137 4 21 6.68629 21 10V7C21 3.68629 18.3137 1 15 1H7Z" fill="#191930" fill-opacity="0.15"/>
<path fill-rule="evenodd" clip-rule="evenodd" d="M11.1153 14.518H12.9293C14.3258 14.518 15.444 13.9762 16.2015 13.1117C16.9419 12.2666 17.2893 11.1705 17.2893 10.109C17.2893 9.04757 16.9419 7.95143 16.2015 7.10635C15.444 6.24179 14.3258 5.70001 12.9293 5.70001H8.11333C6.45504 5.70001 5.11133 7.04373 5.11133 8.70201V14.498C5.11133 16.1563 6.45504 17.5 8.11333 17.5C9.76494 17.5 11.1045 16.1671 11.1153 14.518ZM10.6193 13.518C10.3393 13.518 10.1153 13.742 10.1153 14.008V14.498C10.1153 15.604 9.21933 16.5 8.11333 16.5C7.00733 16.5 6.11133 15.604 6.11133 14.498V8.70201C6.11133 7.59601 7.00733 6.70001 8.11333 6.70001H12.9293C17.4093 6.70001 17.4093 13.518 12.9293 13.518H10.6193ZM10.6193 9.50001C10.3393 9.50001 10.1153 9.73801 10.1153 10.004V10.214C10.1153 10.48 10.3393 10.718 10.6193 10.718H12.7753C13.5733 10.718 13.5733 9.50001 12.7753 9.50001H10.6193Z" fill="#191930"/>
</svg>
