<svg width="16" height="10" viewBox="0 0 16 10" fill="none" xmlns="http://www.w3.org/2000/svg">
<path fill-rule="evenodd" clip-rule="evenodd" d="M9.3769 9.72182C9.74781 10.0927 10.3492 10.0927 10.7201 9.72182L14.7497 5.69225C15.0171 5.4248 15.0917 5.03754 14.9735 4.70325C14.9296 4.5585 14.8505 4.42215 14.7361 4.30774L10.7065 0.278166C10.3356 -0.0927453 9.73426 -0.0927453 9.36335 0.278166C8.99243 0.649079 8.99243 1.25044 9.36335 1.62136L11.6227 3.88066L1.08546 3.88066C0.485977 3.88066 0 4.36664 0 4.96613C0 5.56561 0.485978 6.05159 1.08546 6.05159L11.7039 6.05159L9.3769 8.37863C9.00599 8.74954 9.00599 9.3509 9.3769 9.72182Z" fill="#9CA7C2"/>
</svg>
