<svg width="162" height="25" viewBox="0 0 162 25" fill="none" xmlns="http://www.w3.org/2000/svg">
<path d="M0.1875 4.84L6.6675 25H10.7715L15.8115 9.34L20.9595 25H25.0635L31.5435 4.84V0.052002H27.7995V4.66L22.8315 20.68L17.7195 4.66V0.052002H13.9755V4.66L8.8635 20.68L3.9315 4.66V0.052002H0.1875V4.84Z" fill="#9CA7C2"/>
<path d="M50.4992 25V21.58H38.8712V13.984H48.3392V10.96H38.8712V3.436H50.3192V0.052002H35.1272V25H50.4992Z" fill="#9CA7C2"/>
<path d="M68.3079 25V21.58H58.1199V0.052002H54.3759V25H68.3079Z" fill="#9CA7C2"/>
<path d="M86.0602 25L88.5442 22.48V16.864H84.8362V21.58H74.8281V3.436H84.8362V8.188H88.5442V2.536L86.0602 0.052002H73.6041L71.0842 2.536V22.48L73.6041 25H86.0602Z" fill="#9CA7C2"/>
<path d="M108.063 25L110.619 22.48V2.536L108.063 0.052002H95.1029L92.5829 2.536V22.48L95.1029 25H108.063ZM96.3269 3.436H106.875V21.58H96.3269V3.436Z" fill="#9CA7C2"/>
<path d="M119.521 25V11.932C119.521 10.816 119.449 9.16 119.377 8.008L126.541 17.404V20.824H130.141V17.404L137.305 8.008C137.197 9.16 137.125 10.816 137.125 11.932V25H140.797V0.052002H137.125V3.004L128.341 14.272L119.521 3.004V0.052002H115.849V25H119.521Z" fill="#9CA7C2"/>
<path d="M161.825 25V21.58H150.197V13.984H159.665V10.96H150.197V3.436H161.645V0.052002H146.453V25H161.825Z" fill="#9CA7C2"/>
</svg>
