<?xml version="1.0" encoding="UTF-8"?>
<!-- Generated by Pixelmator Pro 3.2.3 -->
<svg width="233" height="241" viewBox="0 0 233 241" xmlns="http://www.w3.org/2000/svg" xmlns:xlink="http://www.w3.org/1999/xlink">
    <g id="Arrow-pointer">
        <linearGradient id="linearGradient1" x1="104.427345" y1="117.809174" x2="209.519426" y2="206.431153" gradientUnits="userSpaceOnUse" gradientTransform="matrix(0.987688 0.156434 -0.156434 0.987688 19.83856 -18.72825)">
            <stop offset="0" stop-color="#904a0e" stop-opacity="1"/>
            <stop offset="1" stop-color="#4d4d6e" stop-opacity="1"/>
        </linearGradient>
        <linearGradient id="linearGradient2" x1="42.679189" y1="102.881388" x2="242.429371" y2="101.721772" gradientUnits="userSpaceOnUse" gradientTransform="matrix(0.987688 0.156434 -0.156434 0.987688 19.83856 -18.72825)">
            <stop offset="0" stop-color="#af7749" stop-opacity="1"/>
            <stop offset="1" stop-color="#b3b3c9" stop-opacity="1"/>
        </linearGradient>
        <path id="Path-copy-3" fill="url(#linearGradient1)" fill-rule="evenodd" stroke="url(#linearGradient2)" stroke-width="5" stroke-linecap="round" stroke-linejoin="round" d="M 170.368652 17.248413 L 4.612305 168.007324 L 5.068848 188.687134 C 5.068848 188.687134 4.846191 197.327026 9.015381 200.80835 C 12.839111 204.001221 23.109863 202.217773 23.109863 202.217773 L 98.882324 189.77417 C 98.882324 189.77417 109.434326 187.957275 117.260498 188.968994 C 126.301994 190.137817 136.362061 195.634888 136.362061 195.634888 L 207.173096 233.68103 C 207.173096 233.68103 216.394775 238.929077 223 235 C 228.03125 232.00708 227.598633 225.514893 227.598633 225.514893 L 227.479004 197.143799 L 170.368652 17.248413 Z"/>
        <linearGradient id="linearGradient3" x1="17.058673" y1="186.463336" x2="128.902519" y2="170.861175" gradientUnits="userSpaceOnUse" gradientTransform="matrix(0.987688 0.156434 -0.156434 0.987688 17.732449 -12.297496)">
            <stop offset="0" stop-color="#eeeeff" stop-opacity="1"/>
            <stop offset="0.307441" stop-color="#131325" stop-opacity="1"/>
            <stop offset="1" stop-color="#131325" stop-opacity="0.5"/>
        </linearGradient>
        <path id="Path-copy-5" fill="url(#linearGradient3)" fill-rule="evenodd" stroke="none" opacity="0.15" d="M 172.496338 14.557007 L 6.739746 165.315918 L 7.196533 185.995728 C 7.196533 185.995728 5.830811 195.518799 10 199 C 13.823975 202.192993 25.237305 199.526489 25.237305 199.526489 L 101.009766 187.082886 C 101.009766 187.082886 115.084473 185.133301 123.052734 187.405273 L 123.052734 156.679321 L 172.496338 14.557007 Z"/>
        <linearGradient id="linearGradient4" x1="153.00379" y1="0.503949" x2="128.033371" y2="189.626649" gradientUnits="userSpaceOnUse" gradientTransform="matrix(0.987688 0.156434 -0.156434 0.987688 16.57858 -19.1404)">
            <stop offset="0" stop-color="#ffb835" stop-opacity="1"/>
            <stop offset="1" stop-color="#fa7a1e" stop-opacity="1"/>
        </linearGradient>
        <linearGradient id="linearGradient5" x1="24.900993" y1="184.799952" x2="126.916596" y2="90.241579" gradientUnits="userSpaceOnUse" gradientTransform="matrix(0.987688 0.156434 -0.156434 0.987688 16.57858 -19.1404)">
            <stop offset="0" stop-color="#b27a4e" stop-opacity="1"/>
            <stop offset="1" stop-color="#fed5b4" stop-opacity="1"/>
        </linearGradient>
        <path id="Path-copy" fill="url(#linearGradient4)" fill-rule="evenodd" stroke="url(#linearGradient5)" stroke-width="5" stroke-linecap="round" stroke-linejoin="round" d="M 166.930695 5.238815 C 159.604431 3.312607 154.039474 9.83519 154.039474 9.83519 L 10.247342 157.672241 C 10.247342 157.672241 2.487728 164.665024 5.038081 169.713379 C 7.99419 175.564865 19.14472 173.018951 19.14472 173.018951 L 103.016556 158.40271 C 103.016556 158.40271 114.431358 156.010468 121.669632 157.278961 C 126.999634 158.213028 135.781647 162.699554 135.781647 162.699554 L 206.854141 200.259399 C 206.854141 200.259399 218.880219 207.240662 225.176025 203.083862 C 230.449402 199.602112 226.397614 186.792847 226.397614 186.792847 L 174.639587 15.050583 C 174.639587 15.050583 172.845505 6.79393 166.930695 5.238815 Z"/>
        <linearGradient id="linearGradient6" x1="99.925304" y1="-5.557316" x2="85.03467" y2="181.51394" gradientUnits="userSpaceOnUse" gradientTransform="matrix(0.987688 0.156434 -0.156434 0.987688 14.930147 -12.384011)">
            <stop offset="0" stop-color="#131325" stop-opacity="1"/>
            <stop offset="1" stop-color="#131325" stop-opacity="0.5"/>
        </linearGradient>
        <path id="Path-copy-4" fill="url(#linearGradient6)" fill-rule="evenodd" stroke="none" opacity="0.15" d="M 167.237839 6.167358 C 160.022522 4.269226 154.540115 10.703552 154.540115 10.703552 L 12.884762 156.544434 C 12.884762 156.544434 3.642306 164.144135 6.171127 169.114929 C 8.963019 174.602829 21.644466 171.678619 21.644466 171.678619 L 104.254005 157.244217 C 104.254005 157.244217 115.497108 154.882263 122.625908 156.131744 C 133.054855 118.796379 161.157837 27.801849 167.237839 6.167358 Z"/>
        <linearGradient id="linearGradient7" x1="228" y1="205.315802" x2="228" y2="218.299661" gradientUnits="userSpaceOnUse">
            <stop offset="0" stop-color="#fdd4b5" stop-opacity="1"/>
            <stop offset="1" stop-color="#b3b3c9" stop-opacity="1"/>
        </linearGradient>
        <path id="Path" fill="none" stroke="url(#linearGradient7)" stroke-width="5" stroke-linecap="round" stroke-linejoin="round" d="M 228 200 L 228 224"/>
    </g>
</svg>
