<svg width="15" height="30" viewBox="0 0 15 30" fill="none" xmlns="http://www.w3.org/2000/svg">
<path d="M14.895 23.5196V26.6659C14.895 28.5067 13.4071 29.9997 11.5714 29.9997C9.73576 29.9997 8.2478 28.5084 8.2478 26.6659V18.4285L14.895 23.5196Z" fill="#34A853"/>
<path d="M14.895 3.33301V23.5184L8.2478 18.4273V10.3995L13.6866 5.90327C14.4843 5.24536 14.895 4.29259 14.895 3.33301Z" fill="url(#paint0_linear_3297_11140)"/>
<path d="M14.8933 3.21794C14.895 3.25543 14.895 3.29293 14.895 3.33213C14.895 4.29172 14.4843 5.24449 13.6866 5.90239L8.2478 10.3986V3.33384C8.2478 2.24301 8.77106 1.27149 9.58406 0.663018C9.64201 0.618703 9.69996 0.577797 9.76303 0.538595C9.792 0.519847 9.81927 0.501098 9.84825 0.484054C9.90109 0.449966 9.95733 0.419286 10.0085 0.392016L10.155 0.318726L10.2778 0.26248C10.3272 0.242027 10.3766 0.221574 10.4295 0.202825C10.4789 0.184077 10.5317 0.167033 10.5829 0.149989C10.6783 0.121014 10.7755 0.0937429 10.876 0.0732899C10.905 0.0664722 10.9357 0.061359 10.968 0.0545413C10.9902 0.0511325 11.0124 0.0477236 11.0345 0.0443148C11.0737 0.0374971 11.1129 0.0323839 11.1521 0.0272707C11.1981 0.020453 11.2442 0.0153397 11.2919 0.0119309C11.3294 0.00852208 11.3669 0.00511325 11.4044 0.00340883C11.4589 0.00170442 11.5152 0 11.5714 0H11.5731C11.6941 0 11.8117 0.00681766 11.931 0.0187486C11.989 0.0255662 12.0486 0.0340883 12.11 0.0443148C12.168 0.0528369 12.2259 0.0647678 12.2873 0.0784031C12.3452 0.090334 12.4032 0.105674 12.4611 0.122718C12.5088 0.134649 12.5583 0.149989 12.606 0.167033C12.6997 0.197712 12.7935 0.231801 12.8821 0.271002C12.9264 0.289751 12.9707 0.310204 13.0151 0.330657C13.0713 0.357927 13.1275 0.386902 13.1821 0.415877C13.2639 0.461897 13.3423 0.50962 13.4207 0.562457C13.4292 0.569275 13.4377 0.574388 13.4463 0.579501C13.5298 0.637451 13.6099 0.700515 13.69 0.765283C13.7292 0.799371 13.7684 0.831755 13.8076 0.867548L13.811 0.870956C13.8485 0.906749 13.886 0.942542 13.9235 0.980039C13.961 1.01754 13.9985 1.05674 14.0343 1.09423C14.1076 1.17264 14.1741 1.25615 14.2371 1.34138C14.2814 1.39933 14.3223 1.46068 14.3615 1.52034C14.3803 1.54931 14.399 1.57658 14.4161 1.60556C14.4502 1.6584 14.4808 1.71464 14.5081 1.76577C14.5286 1.80668 14.561 1.87315 14.5814 1.91235C14.6002 1.95326 14.6189 1.99417 14.636 2.03507C14.6564 2.0845 14.6769 2.13563 14.6956 2.18677C14.7144 2.23619 14.7314 2.28903 14.7467 2.34016C14.7689 2.41345 14.7876 2.48674 14.8047 2.55833C14.8149 2.59242 14.8217 2.6248 14.8268 2.65889C14.8371 2.70661 14.8456 2.75263 14.8541 2.79865C14.8609 2.83615 14.8643 2.87365 14.8695 2.91114C14.8763 2.95716 14.8814 3.00318 14.8848 3.0509C14.8882 3.0884 14.8916 3.1259 14.8933 3.1634C14.8916 3.18044 14.8933 3.19919 14.8933 3.21794Z" fill="#EA4335"/>
<path d="M9.45444 0.761214C9.49534 0.727126 9.53795 0.694742 9.58056 0.664062C8.77096 1.27254 8.24771 2.24235 8.24771 3.33488V10.4014L5.4252 12.7381C4.8082 13.2512 4.06167 13.4983 3.31684 13.4983C2.36066 13.4983 1.4113 13.0858 0.756804 12.2865C-0.407312 10.865 -0.206191 8.76515 1.20677 7.59592L9.45444 0.761214Z" fill="#FBBC04"/>
<defs>
<linearGradient id="paint0_linear_3297_11140" x1="340.609" y1="2037.55" x2="340.609" y2="2.53196" gradientUnits="userSpaceOnUse">
<stop stop-color="#1A73E8"/>
<stop offset="1" stop-color="#4285F4"/>
</linearGradient>
</defs>
</svg>
