<svg width="107" height="112" viewBox="0 0 107 112" fill="none" xmlns="http://www.w3.org/2000/svg">
<path d="M43.3417 4.69141C48.9274 -0.712159 57.792 -0.712157 63.3776 4.69141C66.5717 7.7814 71.0131 9.22448 75.4134 8.60208C83.1085 7.51367 90.2801 12.7241 91.6228 20.3789C92.3907 24.7562 95.1356 28.5342 99.0614 30.6172C105.927 34.2596 108.666 42.6904 105.253 49.6724C103.301 53.6651 103.301 58.335 105.253 62.3276C108.666 69.3097 105.927 77.7404 99.0614 81.3829C95.1356 83.4658 92.3907 87.2439 91.6228 91.6212C90.2801 99.2759 83.1085 104.486 75.4134 103.398C71.0131 102.776 66.5717 104.219 63.3776 107.309C57.792 112.712 48.9274 112.712 43.3417 107.309C40.1476 104.219 35.7063 102.776 31.3059 103.398C23.6109 104.486 16.4393 99.2759 15.0965 91.6212C14.3287 87.2439 11.5838 83.4658 7.65799 81.3829C0.792836 77.7404 -1.94648 69.3097 1.46656 62.3276C3.41828 58.335 3.41828 53.6651 1.46656 49.6724C-1.94648 42.6904 0.792835 34.2596 7.65799 30.6172C11.5838 28.5342 14.3287 24.7562 15.0965 20.3789C16.4393 12.7241 23.6109 7.51367 31.3059 8.60208C35.7063 9.22448 40.1476 7.7814 43.3417 4.69141Z" fill="#7BF080"/>
<path d="M26.1215 46.3821C26.1655 46.4481 26.1875 46.5141 26.1875 46.5801C26.1875 46.6901 26.1215 46.7781 26.0115 46.8441L25.0875 47.3501C25.0215 47.3721 24.9555 47.3941 24.8895 47.3941C24.7795 47.3941 24.6915 47.3281 24.6255 47.2181L24.5595 47.0861C23.7235 45.6781 22.3815 45.0621 20.5995 45.0621H17.3435V50.4521H19.4115C20.5555 50.4521 21.4355 50.0781 21.5015 48.9561V48.8021C21.5015 48.6041 21.6115 48.4721 21.8315 48.4721H22.4915C22.7115 48.4721 22.8215 48.6041 22.8215 48.8021V53.8181C22.8215 54.0381 22.7115 54.1481 22.4915 54.1481H21.8315C21.6115 54.1481 21.5015 54.0381 21.5015 53.8181V53.6861C21.4355 52.5641 20.5555 52.1901 19.4115 52.1901H17.4755V56.5901C17.4755 57.7561 17.8495 58.6141 18.9715 58.6801H19.1255C19.3235 58.6801 19.4555 58.7901 19.4555 59.0101V59.6701C19.4555 59.8901 19.3235 60.0001 19.1255 60.0001H12.3495C12.1295 60.0001 12.0195 59.8901 12.0195 59.6701V59.0101C12.0195 58.7901 12.1295 58.6801 12.3495 58.6801H12.4815C13.6035 58.6141 13.9775 57.7561 13.9775 56.5901V46.9101C13.9775 45.7221 13.5815 44.8201 12.3715 44.8201H12.3495C12.1295 44.8201 12.0195 44.7101 12.0195 44.4901V43.8301C12.0195 43.6101 12.1295 43.5001 12.3495 43.5001H23.3715C23.5255 43.5001 23.6575 43.5001 23.7895 43.3901L23.9215 43.2801C23.9655 43.2141 24.0315 43.1921 24.0975 43.1921C24.2075 43.1921 24.3175 43.2581 24.3835 43.3901L26.1215 46.3821Z" fill="black"/>
<path d="M43.0189 58.6801C43.2389 58.6801 43.3489 58.7901 43.3489 59.0101V59.6701C43.3489 59.8901 43.2389 60.0001 43.0189 60.0001H36.2649C36.0449 60.0001 35.9349 59.8901 35.9349 59.6701V59.0101C35.9349 58.7901 36.0449 58.6801 36.2649 58.6801H36.3969C37.1229 58.6361 37.4749 58.1961 37.4749 57.6021C37.4749 57.2941 37.3869 56.9421 37.1889 56.5901L35.1869 52.8501C34.7469 52.8941 34.2629 52.9161 33.7569 52.9161H32.1069V56.5901C32.1069 57.7561 32.4809 58.6141 33.5809 58.6801H33.7129C33.9329 58.6801 34.0429 58.7901 34.0429 59.0101V59.6701C34.0429 59.8901 33.9329 60.0001 33.7129 60.0001H26.9589C26.7389 60.0001 26.6289 59.8901 26.6289 59.6701V59.0101C26.6289 58.7901 26.7389 58.6801 26.9589 58.6801H27.1129C28.2349 58.6141 28.5869 57.7561 28.5869 56.5901V46.9101C28.5869 45.7221 28.2129 44.8201 27.0029 44.8201H26.9809C26.7609 44.8201 26.6509 44.7101 26.6509 44.4901V43.8301C26.6509 43.6101 26.7609 43.5001 26.9809 43.5001H35.0549C38.6189 43.5001 40.9289 45.6341 40.9289 48.1421C40.9289 49.6381 40.2029 51.1561 38.3109 52.0581L40.7089 56.5901C41.2589 57.6241 41.7649 58.6141 42.9089 58.6801H43.0189ZM33.3829 51.3541C36.3089 51.3541 37.6289 50.1441 37.6289 48.1421C37.6289 46.1181 36.2869 44.8201 34.0869 44.8201H32.1069V51.3541H33.3829Z" fill="black"/>
<path d="M59.2788 55.2921C59.4108 55.3581 59.4768 55.4681 59.4768 55.5781C59.4768 55.6221 59.4548 55.6881 59.4108 55.7541L57.3428 60.1101C57.2988 60.2421 57.1888 60.3081 57.0788 60.3081C57.0128 60.3081 56.9468 60.2861 56.8808 60.2201L56.7708 60.1101C56.6388 60.0001 56.5068 60.0001 56.3308 60.0001H44.2968C44.0768 60.0001 43.9668 59.8901 43.9668 59.6701V59.0101C43.9668 58.8121 44.0768 58.6801 44.2968 58.6801H44.3188C45.5288 58.6801 45.9248 57.8001 45.9248 56.5901V46.9321C45.9248 45.7221 45.5288 44.8421 44.3188 44.8421H44.2968C44.0768 44.8421 43.9668 44.7101 43.9668 44.5121V43.8521C43.9668 43.6321 44.0768 43.5001 44.2968 43.5001H55.3188C55.4728 43.5001 55.6048 43.5001 55.7368 43.3901L55.8688 43.2801C55.9128 43.2361 55.9788 43.2141 56.0448 43.2141C56.1548 43.2141 56.2648 43.2801 56.3308 43.3901L58.0688 46.3821C58.1128 46.4481 58.1348 46.5141 58.1348 46.5801C58.1348 46.6901 58.0688 46.7781 57.9588 46.8441L57.0348 47.3501C56.9688 47.3941 56.9028 47.4161 56.8368 47.4161C56.7268 47.4161 56.6388 47.3501 56.5728 47.2181L56.5068 47.1081C55.6708 45.6781 54.7688 45.0621 52.9868 45.0621H49.2908V50.2321H51.3588C52.5028 50.2321 53.3828 49.8581 53.4488 48.7581V48.6041C53.4488 48.3841 53.5588 48.2741 53.7788 48.2741H54.4388C54.6588 48.2741 54.7688 48.3841 54.7688 48.6041V53.5981C54.7688 53.8181 54.6588 53.9281 54.4388 53.9281H53.7788C53.5588 53.9281 53.4488 53.8181 53.4488 53.5981V53.4661C53.3828 52.3441 52.5028 51.9921 51.3588 51.9921H49.4228V56.3481C49.4228 57.5141 49.7968 58.3941 50.9408 58.4381H52.3708C54.3728 58.4381 56.1328 58.2841 58.0468 55.1381L58.1128 55.0061C58.2008 54.8961 58.2888 54.8301 58.3988 54.8301C58.4428 54.8301 58.5088 54.8521 58.5748 54.8741L59.2788 55.2921Z" fill="black"/>
<path d="M73.3174 48.7141C73.2074 48.7581 73.1414 48.7801 73.0534 48.7801C72.9214 48.7801 72.7894 48.6921 72.6794 48.5381C70.8094 46.2061 68.8074 45.2601 67.3114 45.2601C66.2114 45.2601 64.9574 45.6121 64.9574 47.1521C64.9574 48.5161 66.7174 49.2421 68.4114 49.7261C71.7774 50.7161 75.2754 51.8381 75.2754 55.1381C75.2754 58.0421 72.9214 60.1761 68.8734 60.1761C67.5974 60.1761 66.3434 59.8901 65.2874 59.3621C65.1774 59.3181 65.0894 59.2961 65.0014 59.2961C64.8254 59.2961 64.7594 59.4721 64.8474 59.7581C64.8914 59.8681 64.8914 59.9341 64.8914 60.0221C64.8914 60.1981 64.8034 60.2861 64.5394 60.2641H63.4394C63.1754 60.2641 62.9994 60.1761 62.8894 59.9561L60.2274 54.9621C60.1614 54.8741 60.1394 54.7641 60.1394 54.6981C60.1394 54.5441 60.2274 54.4121 60.3814 54.3241L61.3494 53.7741C61.4374 53.7081 61.5254 53.6861 61.6134 53.6861C61.7674 53.6861 61.8774 53.7741 61.9874 53.9501C63.9674 56.9861 66.4754 58.4161 69.0054 58.4161C70.9194 58.4161 71.9754 57.4481 71.9754 56.1281C71.9754 53.8621 69.6434 53.5321 67.2894 52.8281C62.2294 51.3321 61.4594 49.1981 61.4594 47.4821C61.4594 45.0181 63.6154 43.5001 67.0254 43.5001C68.6534 43.5001 70.2594 44.2041 70.7874 44.5121C70.8534 44.5341 70.8974 44.5561 70.9194 44.5561C71.0954 44.5561 71.0734 44.2481 70.9634 43.8961C70.9414 43.8301 70.9414 43.7641 70.9414 43.6981C70.9414 43.4781 71.0734 43.3681 71.3374 43.3681H72.1294C72.4154 43.3681 72.5694 43.4781 72.6794 43.7421L74.2194 47.6801C74.2634 47.7901 74.3074 47.9001 74.3074 47.9881C74.3074 48.1201 74.2414 48.2081 74.0654 48.3181L73.3174 48.7141Z" fill="black"/>
<path d="M92.3281 56.5901C92.3281 57.7561 92.6801 58.6141 93.8021 58.6801H93.9341C94.1541 58.6801 94.2641 58.7901 94.2641 59.0101V59.6701C94.2641 59.8901 94.1541 60.0001 93.9341 60.0001H87.1801C86.9601 60.0001 86.8501 59.8901 86.8501 59.6701V59.0101C86.8501 58.7901 86.9601 58.6801 87.1801 58.6801H87.3121C88.4341 58.6141 88.8081 57.7561 88.8081 56.5901V52.4101H81.2841V56.5901C81.2841 57.7561 81.6581 58.6141 82.7801 58.6801H82.9121C83.1321 58.6801 83.2421 58.7901 83.2421 59.0101V59.6701C83.2421 59.8901 83.1321 60.0001 82.9121 60.0001H76.1581C75.9381 60.0001 75.8281 59.8901 75.8281 59.6701V59.0101C75.8281 58.7901 75.9381 58.6801 76.1581 58.6801H76.2901C77.4121 58.6141 77.7641 57.7561 77.7641 56.5901V46.9101C77.7641 45.7441 77.4121 44.8861 76.2901 44.8201H76.1581C75.9381 44.8201 75.8281 44.7101 75.8281 44.4901V43.8301C75.8281 43.6101 75.9381 43.5001 76.1581 43.5001H82.9121C83.1321 43.5001 83.2421 43.6101 83.2421 43.8301V44.4901C83.2421 44.7101 83.1321 44.8201 82.9121 44.8201H82.7801C81.6581 44.8861 81.2841 45.7441 81.2841 46.9101V50.6721H88.8081V46.9101C88.8081 45.7441 88.4341 44.8861 87.3121 44.8201H87.1801C86.9601 44.8201 86.8501 44.7101 86.8501 44.4901V43.8301C86.8501 43.6101 86.9601 43.5001 87.1801 43.5001H93.9341C94.1541 43.5001 94.2641 43.6101 94.2641 43.8301V44.4901C94.2641 44.7101 94.1541 44.8201 93.9341 44.8201H93.8021C92.6801 44.8861 92.3281 45.7441 92.3281 46.9101V56.5901Z" fill="black"/>
<path d="M30.6992 76H29.3672V67.624H32.4992C33.2992 67.624 33.9072 67.848 34.3232 68.296C34.7472 68.744 34.9592 69.36 34.9592 70.144C34.9592 70.784 34.8032 71.312 34.4912 71.728C34.1792 72.144 33.7312 72.4 33.1472 72.496L35.0792 76H33.5912L31.8152 72.616H30.6992V76ZM32.3072 71.536C33.1392 71.536 33.5552 71.156 33.5552 70.396V69.88C33.5552 69.12 33.1392 68.74 32.3072 68.74H30.6992V71.536H32.3072Z" fill="black"/>
<path d="M36.5865 76V67.624H41.8305V68.752H37.9305V71.188H41.6865V72.316H37.9305V74.872H41.8305V76H36.5865Z" fill="black"/>
<path d="M44.0458 76V67.624H45.3898V74.872H49.2058V76H44.0458Z" fill="black"/>
<path d="M50.9771 76V67.624H56.2211V68.752H52.3211V71.188H56.0771V72.316H52.3211V74.872H56.2211V76H50.9771Z" fill="black"/>
<path d="M62.6844 76L62.0484 73.768H59.3844L58.7484 76H57.3804L59.8284 67.624H61.6644L64.1124 76H62.6844ZM60.7644 68.98H60.6684L59.6364 72.652H61.7964L60.7644 68.98Z" fill="black"/>
<path d="M67.8638 76.144C67.1358 76.144 66.5237 76.016 66.0277 75.76C65.5317 75.504 65.1237 75.164 64.8037 74.74L65.6678 73.912C65.9878 74.296 66.3278 74.58 66.6878 74.764C67.0478 74.94 67.4558 75.028 67.9118 75.028C68.4398 75.028 68.8437 74.908 69.1237 74.668C69.4117 74.428 69.5558 74.084 69.5558 73.636C69.5558 73.276 69.4518 73 69.2438 72.808C69.0358 72.608 68.6798 72.464 68.1758 72.376L67.2638 72.232C66.8638 72.168 66.5277 72.064 66.2557 71.92C65.9837 71.768 65.7637 71.592 65.5957 71.392C65.4277 71.184 65.3038 70.956 65.2238 70.708C65.1518 70.452 65.1157 70.184 65.1157 69.904C65.1157 69.112 65.3718 68.512 65.8838 68.104C66.3958 67.688 67.0998 67.48 67.9958 67.48C68.6598 67.48 69.2238 67.588 69.6878 67.804C70.1598 68.012 70.5398 68.308 70.8278 68.692L69.9878 69.532C69.7558 69.252 69.4798 69.028 69.1598 68.86C68.8478 68.684 68.4598 68.596 67.9958 68.596C67.4998 68.596 67.1198 68.704 66.8558 68.92C66.5998 69.128 66.4717 69.436 66.4717 69.844C66.4717 70.188 66.5718 70.46 66.7718 70.66C66.9798 70.852 67.3438 70.992 67.8638 71.08L68.7518 71.236C69.5038 71.372 70.0517 71.648 70.3957 72.064C70.7397 72.472 70.9118 72.972 70.9118 73.564C70.9118 73.948 70.8437 74.3 70.7077 74.62C70.5797 74.94 70.3838 75.212 70.1198 75.436C69.8638 75.66 69.5438 75.836 69.1598 75.964C68.7838 76.084 68.3518 76.144 67.8638 76.144Z" fill="black"/>
<path d="M72.5631 76V67.624H77.8071V68.752H73.9071V71.188H77.6631V72.316H73.9071V74.872H77.8071V76H72.5631Z" fill="black"/>
<path d="M88.0083 76C81.0921 87.956 68.1652 96 53.3596 96C38.554 96 25.6271 87.956 18.7109 76H16.4181C23.5271 89.1033 37.4044 98 53.3596 98C69.3148 98 83.1921 89.1033 90.3011 76H88.0083Z" fill="black"/>
<path d="M17.6287 38C24.216 24.9497 37.7426 16 53.3596 16C68.9766 16 82.5032 24.9497 89.0904 38H91.3178C84.577 23.8103 70.114 14 53.3596 14C36.6052 14 22.1421 23.8103 15.4014 38H17.6287Z" fill="black"/>
</svg>
